<svg version="1.1" id="Layer_1" xmlns="http://www.w3.org/2000/svg" xmlns:xlink="http://www.w3.org/1999/xlink" x="0px" y="0px"
	 width="100%" viewBox="0 0 1306 1084" enable-background="new 0 0 1306 1084" xml:space="preserve">
<path fill="#FEFEFF" opacity="1.000000" stroke="none" 
	d="
M896.000000,1085.000000 
	C597.333313,1085.000000 299.166656,1085.000000 1.000000,1085.000000 
	C1.000000,723.666687 1.000000,362.333344 1.000000,1.000000 
	C436.333344,1.000000 871.666687,1.000000 1307.000000,1.000000 
	C1307.000000,362.333344 1307.000000,723.666687 1307.000000,1085.000000 
	C1170.166626,1085.000000 1033.333374,1085.000000 896.000000,1085.000000 
M836.303040,59.084801 
	C824.708252,55.937511 813.113464,52.790218 801.226257,49.563557 
	C801.226257,195.849670 801.226257,342.295441 801.226257,489.304413 
	C803.310791,488.922882 804.915588,488.714050 806.477478,488.330597 
	C831.647827,482.151337 856.803284,475.911133 881.987610,469.789703 
	C886.443176,468.706726 888.229126,466.744110 888.221802,461.655701 
	C888.038269,334.382141 888.023865,207.108139 888.254456,79.834702 
	C888.264771,74.137672 886.103333,72.449219 881.386475,71.224182 
	C866.587280,67.380577 851.861267,63.255135 836.303040,59.084801 
M381.828979,351.500000 
	C381.828979,390.112396 381.828979,428.724792 381.828979,467.838898 
	C384.383514,467.327484 386.323547,467.030060 388.216064,466.546478 
	C413.199310,460.162842 438.155273,453.670532 463.176727,447.440948 
	C466.830170,446.531403 467.887665,445.020233 467.884491,441.333588 
	C467.786316,327.546143 467.780548,213.758591 467.887421,99.971176 
	C467.891174,95.951256 466.489532,94.569778 462.747131,93.665253 
	C447.226929,89.914101 431.796997,85.790237 416.325073,81.837883 
	C405.074951,78.964005 393.810974,76.144493 381.828857,73.117783 
	C381.828857,166.002274 381.828857,258.251129 381.828979,351.500000 
M564.917786,468.342133 
	C577.430115,464.910156 589.918457,461.385742 602.473083,458.116333 
	C605.327576,457.373016 606.096619,456.024536 606.093628,453.246948 
	C606.029358,393.429779 606.018066,333.612488 606.108948,273.795349 
	C606.114014,270.446930 604.837402,269.083313 601.769104,268.332916 
	C581.568420,263.392303 561.398987,258.324432 541.214844,253.316147 
	C533.847900,251.488190 526.468567,249.709656 518.811401,247.839325 
	C518.811401,325.760986 518.811401,403.023773 518.811401,480.730072 
	C534.324768,476.560486 549.227356,472.555054 564.917786,468.342133 
M698.535889,204.072067 
	C687.891296,206.746338 677.286316,209.597397 666.579834,211.995529 
	C663.006775,212.795868 662.100586,214.448242 662.104553,217.814240 
	C662.175049,277.307953 662.179810,336.801849 662.098633,396.295532 
	C662.093872,399.781555 663.265808,401.149567 666.706848,401.984192 
	C687.874146,407.118347 708.966614,412.560364 730.099243,417.838715 
	C736.456604,419.426636 742.862732,420.819305 749.598389,422.383087 
	C749.598389,345.074524 749.598389,268.693237 749.598389,191.381393 
	C732.465271,195.622681 715.894043,199.724854 698.535889,204.072067 
M688.557495,919.499878 
	C688.558533,931.328064 688.628906,943.157104 688.475769,954.983276 
	C688.455933,956.522034 687.637329,959.023865 686.583801,959.404175 
	C682.443054,960.898926 678.060242,961.723450 673.023743,962.982727 
	C673.023743,960.293579 673.023682,958.511169 673.023804,956.728699 
	C673.025024,925.575134 672.953552,894.421265 673.115173,863.268494 
	C673.136597,859.137268 672.023499,857.610718 667.808411,857.931152 
	C663.336060,858.271118 658.785400,858.349915 654.328552,857.921997 
	C649.361084,857.445007 647.800415,858.869202 647.845886,864.140442 
	C648.117554,895.624878 647.981201,927.112732 647.979797,958.599487 
	C647.979309,969.268005 647.957214,969.197632 637.491882,972.104736 
	C635.954407,972.531799 633.553772,973.942322 633.506104,974.987000 
	C633.162354,982.526733 633.321838,990.089355 633.321838,997.766479 
	C634.675049,997.766479 635.182495,997.866516 635.636047,997.752258 
	C672.429993,988.486023 709.224426,979.221069 745.988159,969.836121 
	C747.120117,969.547180 748.730896,968.021545 748.762146,967.029602 
	C748.996704,959.593689 748.889893,952.147095 748.889893,944.006653 
	C736.946045,946.970032 725.751709,949.747375 713.896790,952.688660 
	C713.896790,950.200195 713.896973,948.569519 713.896790,946.938904 
	C713.895203,931.945251 714.044373,916.949097 713.799011,901.959412 
	C713.726379,897.524048 714.736206,895.786987 719.552124,895.997070 
	C728.660095,896.394409 737.797668,896.111938 747.567078,896.111938 
	C747.567078,888.961914 747.347107,882.331116 747.649841,875.724304 
	C747.830261,871.787659 746.277100,870.953430 742.702026,871.051392 
	C734.544983,871.274902 726.376160,871.031738 718.214966,871.159546 
	C715.113892,871.208069 713.705750,870.370239 713.817688,866.933044 
	C714.050903,859.777039 714.047485,852.603149 713.822693,845.446594 
	C713.713013,841.954651 714.860718,840.739563 718.371765,840.826843 
	C726.363525,841.025269 734.372437,840.665894 742.356506,840.983643 
	C746.611511,841.152954 747.673157,839.673950 747.650818,835.585876 
	C747.492432,806.598938 747.590088,777.610657 747.549561,748.622925 
	C747.531311,735.539368 740.159363,728.149048 727.107788,728.128296 
	C700.952209,728.086609 674.795776,728.213013 648.641602,728.018982 
	C644.254700,727.986389 643.427368,729.606567 643.441650,733.547791 
	C643.564697,767.533020 643.566589,801.519165 643.430176,835.504272 
	C643.414001,839.532043 644.403870,841.092041 648.706726,840.984009 
	C659.695129,840.707764 670.695129,840.890259 681.690491,840.892212 
	C688.567261,840.893494 688.566711,840.895996 688.565918,847.529785 
	C688.563110,871.186462 688.560669,894.843201 688.557495,919.499878 
M163.499985,1002.766663 
	C178.997971,1002.770752 194.497925,1002.640625 209.992584,1002.869812 
	C214.050919,1002.929871 215.029007,1001.616943 215.009262,997.725098 
	C214.859741,968.228638 214.926804,938.731079 214.926300,909.233826 
	C214.926270,907.478882 214.926300,905.723938 214.926300,903.570190 
	C217.554001,903.570190 219.369080,903.570190 221.184174,903.570190 
	C250.014816,903.570251 278.845764,903.507690 307.675720,903.645264 
	C311.526978,903.663574 313.135956,902.706543 312.858093,898.612427 
	C312.531647,893.801392 312.450165,888.924011 312.861969,884.126831 
	C313.268921,879.385864 311.519440,878.204468 306.957886,878.239075 
	C281.128448,878.434998 255.296783,878.338074 229.465866,878.322815 
	C227.747208,878.321838 226.028625,878.171692 222.890930,878.024231 
	C225.843582,875.331177 227.751770,873.591980 229.658630,871.851379 
	C242.944077,859.723877 256.303467,847.676025 269.484680,835.436279 
	C276.608704,828.821106 278.195557,819.525879 273.864166,811.268372 
	C270.070892,804.036743 263.795624,801.054871 255.788681,801.057678 
	C203.293671,801.076294 150.798645,801.050049 98.303635,801.038574 
	C96.137299,801.038086 93.910652,800.741211 91.829803,801.163086 
	C90.773537,801.377136 89.217926,802.864746 89.189087,803.816162 
	C88.968307,811.097168 89.067902,818.387878 89.067902,826.607666 
	C139.970383,826.607666 190.253159,826.607666 241.975769,826.607666 
	C239.881271,828.905762 238.975494,830.025879 237.942993,831.013428 
	C222.657791,845.633179 207.301315,860.179077 192.109985,874.895569 
	C189.502441,877.421631 186.867477,878.407837 183.266602,878.398376 
	C142.104080,878.290405 100.941147,878.328186 59.778328,878.329468 
	C58.278584,878.329529 56.660454,878.010925 55.316246,878.474792 
	C54.226021,878.850952 52.706158,880.158264 52.678242,881.091553 
	C52.460564,888.369629 52.557861,895.657166 52.557861,903.685913 
	C98.528954,903.685913 143.884430,903.685913 189.204178,903.685913 
	C189.383408,905.091492 189.539413,905.746582 189.540024,906.401794 
	C189.560684,928.732971 189.487823,951.064697 189.647644,973.394775 
	C189.676208,977.384949 187.636612,977.549561 184.650421,977.536865 
	C168.485565,977.468079 152.320236,977.493164 136.155136,977.518982 
	C134.225937,977.522034 132.297073,977.725769 129.995331,977.857971 
	C129.995331,985.526611 129.832596,992.679871 130.173904,999.808960 
	C130.224075,1000.856934 132.645676,1002.609924 134.006042,1002.645203 
	C143.498718,1002.890869 153.000854,1002.769897 163.499985,1002.766663 
M1192.205566,933.500000 
	C1192.204956,944.164429 1192.060303,954.831909 1192.281738,965.491699 
	C1192.359009,969.212646 1191.247314,970.406189 1187.482300,970.320496 
	C1177.156372,970.085693 1166.818359,970.383423 1156.491821,970.160461 
	C1152.653198,970.077637 1151.009399,971.067749 1151.277100,975.184937 
	C1151.600708,980.163025 1151.577637,985.190735 1151.289673,990.172974 
	C1151.055420,994.223450 1152.273926,995.722046 1156.571289,995.674011 
	C1175.231934,995.465698 1193.896362,995.595276 1212.559326,995.573730 
	C1213.990234,995.572021 1215.420898,995.350037 1217.168579,995.204041 
	C1217.268311,993.211060 1217.421021,991.580627 1217.421265,989.950256 
	C1217.433228,915.798035 1217.435181,841.645813 1217.428711,767.493591 
	C1217.427612,754.692322 1210.176758,747.267212 1197.400146,747.196716 
	C1180.070679,747.101074 1162.740479,747.166687 1145.410522,747.141296 
	C1143.674194,747.138794 1141.938232,746.985291 1139.815674,746.883362 
	C1140.755249,740.134583 1141.473877,734.030762 1142.503540,727.979797 
	C1143.011230,724.996338 1142.407471,723.537170 1139.117920,723.597351 
	C1133.287598,723.704102 1127.452759,723.706177 1121.622314,723.606628 
	C1118.705933,723.556885 1117.498169,724.749573 1117.206787,727.676025 
	C1116.712280,732.640686 1115.644043,737.549011 1115.171753,742.514709 
	C1114.807739,746.340637 1113.047974,747.388489 1109.344604,747.244141 
	C1101.857178,746.952271 1094.347778,747.270386 1086.853760,747.083862 
	C1083.582031,747.002441 1082.374878,748.135742 1082.510376,751.409485 
	C1082.710083,756.233826 1082.572510,761.072144 1082.573486,765.904541 
	C1082.574707,772.472534 1082.572632,772.464417 1089.210449,772.455261 
	C1096.309570,772.445435 1103.408569,772.453064 1110.903076,772.453064 
	C1108.425903,789.794678 1106.056274,806.244324 1103.729126,822.700012 
	C1098.343140,860.785217 1092.971802,898.872498 1087.606079,936.960571 
	C1085.213257,953.944946 1082.846924,970.933044 1080.471436,987.919861 
	C1080.165527,990.107056 1079.579346,992.515198 1083.055542,992.532654 
	C1090.191284,992.568359 1097.327271,992.543396 1104.943848,992.543396 
	C1105.671509,987.390808 1106.335205,982.642334 1107.013306,977.895874 
	C1111.346191,947.568665 1115.708496,917.245605 1120.010376,886.914001 
	C1125.131714,850.806091 1130.347534,814.710266 1135.136719,778.558105 
	C1135.850952,773.167175 1137.957397,772.255554 1142.714844,772.343445 
	C1157.207031,772.611267 1171.711670,772.646118 1186.202026,772.332886 
	C1191.103638,772.226929 1192.313232,773.771301 1192.298584,778.530273 
	C1192.139404,829.853149 1192.203003,881.176636 1192.205566,933.500000 
M562.491272,815.620483 
	C495.332306,815.618958 428.173309,815.617493 361.014343,815.615784 
	C360.014465,815.615723 358.758606,815.232239 358.069122,815.694458 
	C356.716980,816.600891 354.758545,817.914734 354.672546,819.171021 
	C354.297943,824.645020 354.772644,830.176086 354.417542,835.652710 
	C354.134644,840.016174 355.916077,840.959534 359.903992,840.912720 
	C375.733368,840.726807 391.568207,840.969299 407.396332,840.737000 
	C411.727509,840.673462 413.094940,841.854004 413.081696,846.335510 
	C412.929810,897.662476 412.985321,948.990112 412.985443,1000.317566 
	C412.985443,1001.484070 412.643036,1002.801697 413.074524,1003.777100 
	C413.564484,1004.884766 414.722595,1006.469543 415.631287,1006.497192 
	C422.911041,1006.718811 430.200531,1006.621033 438.056549,1006.621033 
	C438.056549,1004.393982 438.056549,1002.773621 438.056549,1001.153259 
	C438.056000,949.659119 438.114563,898.164856 437.953003,846.671204 
	C437.938690,842.099121 439.082947,840.714783 443.761536,840.735535 
	C483.256226,840.911011 522.752441,840.917908 562.246948,840.718567 
	C567.066650,840.694275 568.012207,842.294922 567.993103,846.733887 
	C567.833069,884.062317 567.902954,921.391663 567.903748,958.720764 
	C567.903748,960.343994 567.903748,961.967163 567.903748,964.032043 
	C565.629028,964.145874 563.854736,964.307251 562.080078,964.311401 
	C552.081238,964.334717 542.075867,964.530457 532.086609,964.220825 
	C527.757263,964.086609 526.615784,965.602722 526.877747,969.665527 
	C527.198730,974.644043 527.155151,979.670898 526.877930,984.655090 
	C526.663086,988.518677 527.827087,989.838867 531.902710,989.790894 
	C550.398010,989.573242 568.899475,989.546814 587.393799,989.802856 
	C591.885071,989.865051 592.945190,988.518311 592.931519,984.166809 
	C592.778015,935.172913 592.831543,886.178284 592.824646,837.183899 
	C592.824463,835.684692 592.838196,834.180847 592.732849,832.687073 
	C592.204102,825.191284 587.594910,818.626038 580.290649,816.936951 
	C574.877136,815.685059 569.100708,816.002686 562.491272,815.620483 
M959.947021,883.247192 
	C959.145386,888.848877 958.361389,894.453064 957.539246,900.051758 
	C953.233276,929.372986 948.935852,958.695496 944.578430,988.009094 
	C944.122620,991.075317 944.644775,992.634521 948.280579,992.623352 
	C981.433594,992.521423 1014.587463,992.648376 1047.740112,992.495544 
	C1059.024414,992.443481 1067.116455,983.875244 1067.119141,972.679443 
	C1067.123779,953.687073 1067.127319,934.694763 1067.109497,915.702393 
	C1067.108032,914.113953 1066.940430,912.525574 1066.826416,910.523499 
	C1059.869019,910.523499 1053.389771,910.718018 1046.929810,910.450806 
	C1043.028198,910.289429 1041.755493,911.504272 1041.813843,915.522583 
	C1042.036377,930.846436 1041.911133,946.175598 1041.888184,961.502747 
	C1041.885498,963.277649 1041.709595,965.052307 1041.611938,966.867493 
	C1018.523071,966.867493 995.975525,966.867493 973.172424,966.867493 
	C973.816162,961.845032 974.338684,957.228394 975.007812,952.633118 
	C980.597229,914.250366 986.265259,875.878845 991.745911,837.480591 
	C992.323425,833.434448 993.647888,831.938416 997.981262,831.982361 
	C1020.636475,832.212097 1043.296021,831.993469 1065.952026,832.177063 
	C1070.172485,832.211243 1072.057495,831.319580 1071.641846,826.687439 
	C1071.226440,822.059814 1071.214844,817.335571 1071.638062,812.709656 
	C1072.074951,807.934387 1070.252197,806.811096 1065.724365,806.827209 
	C1023.741882,806.976440 981.758484,806.914673 939.775391,806.914612 
	C939.109009,806.914612 938.436523,806.979858 937.777222,806.912781 
	C934.700378,806.600037 933.722778,807.982483 933.835815,811.002991 
	C934.041321,816.493103 934.143799,822.011414 933.812500,827.489136 
	C933.572144,831.462280 935.218323,832.245239 938.753723,832.152649 
	C946.744995,831.943176 954.745728,832.069458 962.742310,832.107971 
	C964.147766,832.114746 965.552124,832.358765 967.100220,832.506958 
	C967.100220,833.660400 967.181946,834.323853 967.088318,834.961426 
	C964.766296,850.771606 962.425903,866.579041 959.947021,883.247192 
M484.500000,767.970886 
	C498.824371,767.971924 513.149658,768.062683 527.472534,767.914124 
	C531.291443,767.874573 532.821777,768.970215 532.650085,773.048584 
	C532.335266,780.530823 532.634521,788.036926 532.497681,795.529724 
	C532.442017,798.579468 533.204834,800.196838 536.664978,800.080750 
	C542.488098,799.885315 548.324829,799.922363 554.151001,800.062378 
	C557.014038,800.131104 557.920471,798.978149 557.875061,796.222473 
	C557.748779,788.562622 558.049133,780.889893 557.724365,773.241638 
	C557.546570,769.054138 558.887451,767.816956 563.045593,767.881592 
	C577.532898,768.106995 592.027039,767.863770 606.515686,768.040771 
	C610.450134,768.088806 612.338989,767.253845 611.981384,762.807922 
	C611.582092,757.843201 611.628784,752.803955 611.968750,747.830444 
	C612.248352,743.739746 610.662170,742.750488 606.828552,742.797180 
	C592.006897,742.977722 577.180847,742.783997 562.358521,742.934875 
	C558.949097,742.969604 557.642456,742.047485 557.724854,738.454285 
	C557.821655,734.230774 558.751892,728.298828 556.476746,726.219360 
	C554.051575,724.002747 548.303833,725.302979 544.005371,725.277344 
	C532.585571,725.209351 532.349976,725.260437 532.658997,736.889587 
	C532.789429,741.797852 531.179321,742.997498 526.438477,742.971863 
	C491.628326,742.783569 456.816742,742.871826 422.005585,742.872864 
	C420.382233,742.872925 418.758881,742.872925 416.462891,742.872925 
	C416.462891,738.062378 416.305054,733.781677 416.513672,729.518982 
	C416.675934,726.203247 415.356201,725.107483 412.139923,725.207458 
	C406.482361,725.383301 400.813171,725.348145 395.153168,725.216370 
	C392.232361,725.148376 390.818298,726.054932 391.036560,729.212891 
	C391.242737,732.196655 390.848938,735.228088 391.134491,738.198608 
	C391.503113,742.033325 389.945190,743.003784 386.287994,742.949219 
	C373.299164,742.755249 360.304749,742.957764 347.314636,742.812317 
	C344.096924,742.776367 342.812439,743.733337 342.938660,747.055420 
	C343.140869,752.377747 343.262085,757.730652 342.913788,763.037598 
	C342.640808,767.197266 344.297119,768.102051 348.110291,768.044006 
	C360.932495,767.848877 373.760712,768.067749 386.583801,767.905579 
	C390.101624,767.861145 391.247620,769.059570 391.153259,772.532227 
	C390.945190,780.188538 391.252472,787.859924 390.995453,795.513306 
	C390.875000,799.100037 392.147736,800.201111 395.578583,800.075317 
	C401.067657,799.874268 406.576080,799.861511 412.063812,800.081299 
	C415.677795,800.226074 416.617096,798.719116 416.525940,795.342651 
	C416.323700,787.852783 416.687836,780.343811 416.362305,772.862610 
	C416.182495,768.730347 417.723969,767.863098 421.540100,767.893311 
	C442.192322,768.056824 462.846497,767.970825 484.500000,767.970886 
M317.024048,780.489990 
	C317.026642,773.827209 317.107758,767.162903 316.982819,760.502502 
	C316.946411,758.564453 316.662933,756.490784 315.907349,754.730530 
	C312.463165,746.706848 306.328796,742.825012 297.500610,742.846191 
	C265.019073,742.924133 232.536728,742.788147 200.056046,742.971802 
	C195.565186,742.997192 194.049072,741.617065 194.532578,737.281189 
	C194.826172,734.648438 194.465332,731.949036 194.628967,729.293762 
	C194.818451,726.218750 193.468887,725.156921 190.502350,725.222351 
	C184.675095,725.350952 178.841293,725.350586 173.013794,725.229736 
	C170.165054,725.170654 169.184479,726.365295 169.265839,729.109070 
	C169.396988,733.531921 169.301071,737.961487 169.301071,743.028748 
	C130.056137,743.028748 91.537025,743.028748 53.057545,743.028748 
	C53.057545,760.376343 53.057545,777.062500 53.057545,794.114868 
	C60.526596,794.114868 67.511116,794.285828 74.470894,793.947632 
	C75.639030,793.890869 77.563522,791.692383 77.658119,790.377075 
	C78.027565,785.240234 77.802208,780.060547 77.798218,774.896790 
	C77.792870,767.966431 77.792969,767.969177 84.971306,767.969177 
	C149.601624,767.969421 214.231949,767.968933 278.862274,767.968018 
	C291.998962,767.967834 291.998993,767.966614 291.993622,781.308777 
	C291.988495,794.114319 291.988495,794.114319 304.640717,794.114563 
	C317.024475,794.114807 317.024475,794.114807 317.024048,780.489990 
M866.855530,725.356323 
	C861.190613,725.322998 855.502869,725.592041 849.867737,725.165527 
	C844.901428,724.789612 843.323792,726.253174 843.334290,731.475037 
	C843.503906,815.636597 843.457825,899.798706 843.460022,983.960632 
	C843.460083,986.960449 843.538330,989.963501 843.425171,992.959167 
	C843.325256,995.603821 844.158386,996.955933 847.093079,996.945068 
	C866.258423,996.874207 885.424377,996.942444 904.589172,996.819153 
	C905.716980,996.811951 907.790833,995.566223 907.813416,994.846375 
	C908.050964,987.271118 907.960266,979.685547 907.960266,971.445801 
	C894.489990,971.445801 881.774109,971.445801 868.653381,971.445801 
	C868.653381,969.133118 868.653442,967.491211 868.653442,965.849304 
	C868.654114,887.853699 868.662231,809.858032 868.614868,731.862427 
	C868.613586,729.796021 868.008545,727.730042 866.855530,725.356323 
M825.473572,759.355347 
	C825.473572,748.120361 825.473572,736.885437 825.473572,725.250366 
	C819.598755,725.250366 813.788696,725.250732 807.978638,725.250244 
	C800.941711,725.249634 800.892944,725.247986 800.693848,732.324341 
	C799.621155,770.459595 798.572388,808.595520 797.519653,846.731323 
	C796.411865,886.865479 795.269043,926.998779 794.275146,967.135742 
	C794.189819,970.582031 793.190918,971.826111 789.687805,971.728271 
	C782.195740,971.518982 774.691345,971.774536 767.197205,971.607666 
	C764.113953,971.539001 763.089905,972.675781 763.174255,975.678528 
	C763.333130,981.338989 763.364746,987.012939 763.153870,992.670227 
	C763.030029,995.994629 764.293701,997.006226 767.514587,996.962463 
	C778.342896,996.815063 789.175232,996.986572 800.004272,996.867432 
	C807.241272,996.787842 813.236023,993.704529 816.218079,987.120239 
	C818.144836,982.866028 819.004944,977.852112 819.191528,973.133118 
	C820.119446,949.662354 820.667847,926.176575 821.345154,902.695984 
	C822.714355,855.235840 824.080566,807.775635 825.473572,759.355347 
M181.884247,625.584290 
	C183.431595,621.903625 185.175735,618.291077 186.479996,614.526184 
	C188.419861,608.926575 192.989868,611.130432 196.554398,611.266113 
	C197.341446,611.296021 198.593811,614.835449 198.614899,616.769897 
	C198.783783,632.264832 198.772690,647.762817 198.657318,663.258728 
	C198.632065,666.651306 199.234665,668.610229 203.270981,668.454041 
	C209.759979,668.203003 216.267105,668.453186 222.762894,668.316528 
	C223.928772,668.292114 226.056351,667.469299 226.081223,666.937622 
	C226.320938,661.810730 226.571060,656.613586 225.831345,651.581543 
	C225.708206,650.743774 220.831055,650.614380 218.155899,650.129272 
	C217.855743,650.074829 217.589355,649.834351 216.739822,649.370056 
	C216.739822,639.728516 216.742325,629.778381 216.739059,619.828247 
	C216.736328,611.490601 216.733917,611.498413 224.774078,610.902283 
	C225.410065,610.855164 226.030304,610.596008 226.877594,610.379150 
	C226.877594,605.563538 226.877594,600.837891 226.877594,596.367126 
	C223.313400,595.668579 218.645050,596.061218 217.408279,594.188049 
	C215.776413,591.716553 216.836517,587.467468 216.740265,583.982544 
	C216.735657,583.816040 216.739792,583.649292 216.739838,583.482666 
	C216.743546,570.091675 216.745758,570.177368 203.103531,570.529053 
	C199.902069,570.611694 198.574097,571.640808 198.661697,574.903442 
	C198.813705,580.564941 198.644135,586.234375 198.743286,591.898193 
	C198.791977,594.679626 197.727051,595.730286 194.883926,595.599670 
	C189.562683,595.355164 184.212311,595.630615 178.903824,595.261658 
	C175.235535,595.006653 173.617523,596.497437 172.428879,599.802795 
	C168.039291,612.008911 163.396713,624.124268 158.818756,636.262268 
	C158.328110,637.563171 157.638000,638.788757 156.658630,640.854614 
	C151.555389,626.555115 146.866180,613.245361 142.002838,599.999512 
	C141.379745,598.302429 139.945831,595.721680 138.724991,595.626099 
	C132.855453,595.166504 126.930115,595.419495 120.484741,595.419495 
	C121.093109,597.342712 121.361481,598.431213 121.774780,599.461670 
	C128.153992,615.366394 133.868835,631.587036 141.187317,647.048157 
	C146.020050,657.257874 146.419434,666.086609 141.164642,676.098633 
	C136.973099,684.084900 134.373199,692.906555 130.679428,702.347412 
	C135.700790,702.347412 139.830490,701.981323 143.865479,702.443054 
	C148.571075,702.981567 150.630203,700.920715 152.314713,696.803467 
	C161.951355,673.249695 171.833893,649.796631 181.884247,625.584290 
M321.745087,597.499756 
	C321.744995,604.165527 321.743774,610.831299 321.744995,617.497070 
	C321.747833,632.828369 321.755157,648.159607 321.752106,663.490906 
	C321.751648,665.870361 321.460083,668.485840 325.039917,668.354004 
	C338.166138,667.870605 351.468323,668.501404 364.370789,666.530151 
	C380.680817,664.038086 392.597473,654.284119 396.916626,637.905090 
	C399.119507,629.551453 399.966278,620.440125 399.344482,611.821411 
	C397.854156,591.164551 386.001129,576.873413 365.787781,573.060425 
	C352.526520,570.558777 338.650543,571.303040 325.047882,570.633545 
	C321.928314,570.479980 321.713623,572.631531 321.727112,575.002625 
	C321.767853,582.168152 321.744415,589.333984 321.745087,597.499756 
M56.082253,570.615173 
	C52.520100,570.220093 52.537071,572.568726 52.545197,575.080139 
	C52.585060,587.403809 52.570831,599.727661 52.570183,612.051453 
	C52.569279,629.204834 52.560997,646.358215 52.562679,663.511597 
	C52.562904,665.805603 52.010384,668.499329 55.738739,668.343628 
	C67.692780,667.844666 79.728897,668.036133 91.577217,666.638000 
	C103.500755,665.231018 112.685432,656.422546 114.677246,646.625977 
	C117.560204,632.446411 113.996948,623.734741 102.099266,615.909058 
	C101.549599,615.547485 100.940033,615.277039 100.581291,615.084045 
	C102.990669,611.454285 105.497169,608.639221 106.930069,605.355713 
	C113.676369,589.896362 103.400742,573.514282 85.397987,571.590759 
	C75.996178,570.586243 66.453743,570.897827 56.082253,570.615173 
M654.728455,595.228271 
	C637.413940,600.339050 626.302551,615.136353 626.666382,632.599182 
	C627.017761,649.460632 638.647461,664.305786 654.771362,668.474976 
	C669.804871,672.362183 686.954041,666.469543 693.717468,654.817261 
	C689.773987,651.668884 685.784363,648.483643 681.521790,645.080505 
	C675.881775,650.522095 669.655823,654.094604 661.745239,652.987183 
	C653.888794,651.887268 646.912170,646.126465 645.905518,639.613892 
	C647.774048,639.613892 649.565125,639.613831 651.356201,639.613892 
	C666.836487,639.614136 682.317505,639.682495 697.795715,639.504333 
	C699.271851,639.487366 701.898926,638.043762 701.993530,637.068604 
	C702.391479,632.963745 702.683105,628.647339 701.839050,624.656799 
	C697.275879,603.083008 677.044434,590.283630 654.728455,595.228271 
M308.177124,624.455933 
	C307.089294,621.492249 306.218658,618.426147 304.877777,615.581787 
	C297.118011,599.120667 278.523773,590.508484 261.088593,595.183777 
	C242.887787,600.064392 231.518372,616.629333 233.095673,635.968750 
	C234.486694,653.024170 249.164688,667.803711 266.771667,669.525818 
	C280.307922,670.849731 291.313690,665.951355 300.429077,655.181091 
	C296.060211,651.761414 292.499237,647.912476 288.098053,646.062622 
	C286.387787,645.343689 282.781738,649.138977 280.036285,650.873352 
	C279.755463,651.050781 279.464355,651.218079 279.161804,651.354004 
	C268.465759,656.158630 254.372910,650.326477 251.926453,639.619141 
	C253.660416,639.619141 255.280136,639.619263 256.899841,639.619141 
	C269.555176,639.618042 282.210480,639.619263 294.865814,639.615234 
	C309.057617,639.610657 309.057617,639.608582 308.177124,624.455933 
M404.493225,644.896240 
	C408.425568,656.149048 415.898071,663.985718 427.265381,667.686584 
	C440.227875,671.906860 451.801971,669.082947 462.667175,658.548035 
	C462.667175,661.718018 462.287201,663.573181 462.787964,665.148438 
	C463.185028,666.397461 464.592834,668.126953 465.670410,668.216553 
	C469.925385,668.570251 474.227112,668.361694 478.766785,668.361694 
	C478.766785,643.766052 478.766785,619.861816 478.766785,595.338928 
	C476.686218,595.338928 474.898987,595.340698 473.111755,595.338684 
	C464.147766,595.328430 464.147766,595.328064 461.722076,603.318787 
	C461.134949,602.960022 460.547211,602.712219 460.097687,602.309875 
	C449.424194,592.756226 437.335205,591.990173 424.679932,597.180908 
	C407.384094,604.275085 399.124603,623.699341 404.493225,644.896240 
M508.224884,598.895752 
	C507.087708,599.719360 505.950500,600.542908 504.090576,601.889893 
	C504.851837,595.142578 501.159424,594.820801 496.766724,595.320862 
	C495.287201,595.489319 493.746094,595.522644 492.278076,595.309082 
	C488.153046,594.708862 487.275574,596.622314 487.309784,600.419861 
	C487.476318,618.904663 487.386871,637.391663 487.385986,655.877930 
	C487.385376,668.488708 487.385223,668.343384 499.868073,668.460632 
	C503.923218,668.498657 505.473267,667.404175 505.355286,663.130493 
	C505.079590,653.145447 505.161316,643.146179 505.310547,633.155884 
	C505.369904,629.184021 505.530304,625.109253 506.457184,621.277893 
	C508.078278,614.577087 513.110596,610.984192 519.929626,610.845886 
	C527.092712,610.700623 531.660889,613.727112 533.743103,620.636475 
	C534.686768,623.767700 535.085876,627.162109 535.134277,630.445923 
	C535.298706,641.601807 535.099976,652.763550 535.311951,663.917847 
	C535.340271,665.406677 536.827576,668.049194 537.820496,668.138306 
	C542.721497,668.578247 547.683472,668.338501 552.650452,668.338501 
	C552.650452,651.496155 554.027527,635.231873 552.317261,619.299072 
	C549.944153,597.191101 528.380798,587.530029 508.224884,598.895752 
M1051.289551,756.408325 
	C1053.407837,756.408325 1055.526245,756.408325 1057.998047,756.408325 
	C1057.998047,747.801575 1057.998047,739.745544 1057.998047,731.726379 
	C1057.240112,731.463074 1056.781372,731.164429 1056.322021,731.163818 
	C1021.031738,731.116577 985.741394,731.111023 950.451233,731.031616 
	C947.684570,731.025391 947.077515,732.377991 947.104248,734.741272 
	C947.166321,740.234009 947.375366,745.743591 947.039734,751.216492 
	C946.777893,755.485229 948.389709,756.503357 952.453918,756.485168 
	C985.081299,756.339050 1017.709595,756.405884 1051.289551,756.408325 
M566.958252,607.451477 
	C553.090454,626.071106 556.457947,650.829834 574.499756,662.898438 
	C591.742188,674.432495 615.598206,670.820007 625.257812,654.809998 
	C622.376648,652.480408 619.299988,650.245850 616.531860,647.678589 
	C614.093567,645.417236 612.450195,645.608459 609.886414,647.815674 
	C599.170044,657.041626 583.576416,653.922791 577.258301,641.542847 
	C572.794006,632.795410 574.913086,621.953674 582.318665,615.652588 
	C590.011108,609.107422 600.891785,608.909973 609.077942,614.922913 
	C610.396973,615.891724 613.080566,616.836609 614.005127,616.186890 
	C617.741882,613.561218 621.037170,610.307251 624.449829,607.325012 
	C611.141418,589.658936 584.011719,589.715088 566.958252,607.451477 
M762.505981,863.755554 
	C760.341858,888.011780 758.177795,912.268005 755.973877,936.970764 
	C763.280945,936.970764 769.601929,936.704834 775.887085,937.064636 
	C780.041260,937.302551 781.415344,935.768066 781.696228,931.807129 
	C782.378906,922.183594 783.412659,912.585022 784.305481,902.976440 
	C786.060669,884.089111 787.768433,865.197144 789.615479,846.318787 
	C789.950134,842.898499 789.067932,841.435486 785.375183,841.604309 
	C779.893311,841.854858 774.387451,841.796021 768.899658,841.621094 
	C765.693970,841.518921 764.421326,842.851013 764.191711,845.941467 
	C763.772522,851.582397 763.123413,857.206177 762.505981,863.755554 
M877.285706,861.464600 
	C879.487427,885.164429 881.754700,908.858521 883.818054,932.570374 
	C884.116638,936.001526 885.301453,937.196350 888.717407,937.035950 
	C893.868713,936.794067 899.059631,936.689392 904.196472,937.052490 
	C908.858276,937.382019 909.747131,935.703735 909.261719,931.295105 
	C907.512756,915.413513 906.171021,899.487000 904.680054,883.577026 
	C903.515381,871.148865 902.422119,858.713196 901.116150,846.299927 
	C900.950500,844.725464 899.744080,841.989868 898.922974,841.953125 
	C891.385803,841.614929 883.827209,841.754028 875.660583,841.754028 
	C876.238037,848.678101 876.733398,854.616699 877.285706,861.464600 
M789.987610,791.171448 
	C788.658264,778.446899 787.410645,765.712524 785.894653,753.010254 
	C785.708740,751.451904 784.147217,748.844299 783.121216,748.793762 
	C775.715332,748.429260 768.283264,748.598389 760.983032,748.598389 
	C760.712769,749.745789 760.459045,750.238770 760.507812,750.699707 
	C762.710815,771.514526 764.905945,792.330505 767.268982,813.127380 
	C767.386658,814.162842 768.965637,815.820679 769.905029,815.849365 
	C777.316833,816.075012 784.738586,815.974731 792.889099,815.974731 
	C791.894409,807.481323 790.992798,799.783142 789.987610,791.171448 
M905.401123,773.196716 
	C906.262390,765.187439 907.123657,757.178162 908.048767,748.575317 
	C900.578491,748.575317 893.943726,748.756897 887.325562,748.504333 
	C883.602234,748.362244 882.570496,749.829224 882.219849,753.357239 
	C880.476440,770.897766 878.431396,788.408081 876.546143,805.934875 
	C876.202148,809.132568 876.106934,812.356995 875.868164,816.007019 
	C883.088928,816.007019 889.405701,815.731995 895.684143,816.103577 
	C899.875061,816.351624 901.156433,814.667053 901.510498,810.821655 
	C902.638855,798.566895 904.019958,786.335327 905.401123,773.196716 
z"/>
<path fill="#68DBCD" opacity="1.000000" stroke="none" 
	d="
M836.704956,59.161827 
	C851.861267,63.255135 866.587280,67.380577 881.386475,71.224182 
	C886.103333,72.449219 888.264771,74.137672 888.254456,79.834702 
	C888.023865,207.108139 888.038269,334.382141 888.221802,461.655701 
	C888.229126,466.744110 886.443176,468.706726 881.987610,469.789703 
	C856.803284,475.911133 831.647827,482.151337 806.477478,488.330597 
	C804.915588,488.714050 803.310791,488.922882 801.226257,489.304413 
	C801.226257,342.295441 801.226257,195.849670 801.226257,49.563557 
	C813.113464,52.790218 824.708252,55.937511 836.704956,59.161827 
z"/>
<path fill="#2543BA" opacity="1.000000" stroke="none" 
	d="
M381.828918,351.000000 
	C381.828857,258.251129 381.828857,166.002274 381.828857,73.117783 
	C393.810974,76.144493 405.074951,78.964005 416.325073,81.837883 
	C431.796997,85.790237 447.226929,89.914101 462.747131,93.665253 
	C466.489532,94.569778 467.891174,95.951256 467.887421,99.971176 
	C467.780548,213.758591 467.786316,327.546143 467.884491,441.333588 
	C467.887665,445.020233 466.830170,446.531403 463.176727,447.440948 
	C438.155273,453.670532 413.199310,460.162842 388.216064,466.546478 
	C386.323547,467.030060 384.383514,467.327484 381.828979,467.838898 
	C381.828979,428.724792 381.828979,390.112396 381.828918,351.000000 
z"/>
<path fill="#2B7AD6" opacity="1.000000" stroke="none" 
	d="
M564.523926,468.445862 
	C549.227356,472.555054 534.324768,476.560486 518.811401,480.730072 
	C518.811401,403.023773 518.811401,325.760986 518.811401,247.839325 
	C526.468567,249.709656 533.847900,251.488190 541.214844,253.316147 
	C561.398987,258.324432 581.568420,263.392303 601.769104,268.332916 
	C604.837402,269.083313 606.114014,270.446930 606.108948,273.795349 
	C606.018066,333.612488 606.029358,393.429779 606.093628,453.246948 
	C606.096619,456.024536 605.327576,457.373016 602.473083,458.116333 
	C589.918457,461.385742 577.430115,464.910156 564.523926,468.445862 
z"/>
<path fill="#2AC4CC" opacity="1.000000" stroke="none" 
	d="
M698.929382,203.949554 
	C715.894043,199.724854 732.465271,195.622681 749.598389,191.381393 
	C749.598389,268.693237 749.598389,345.074524 749.598389,422.383087 
	C742.862732,420.819305 736.456604,419.426636 730.099243,417.838715 
	C708.966614,412.560364 687.874146,407.118347 666.706848,401.984192 
	C663.265808,401.149567 662.093872,399.781555 662.098633,396.295532 
	C662.179810,336.801849 662.175049,277.307953 662.104553,217.814240 
	C662.100586,214.448242 663.006775,212.795868 666.579834,211.995529 
	C677.286316,209.597397 687.891296,206.746338 698.929382,203.949554 
z"/>
<path fill="#2846BB" opacity="1.000000" stroke="none" 
	d="
M688.557800,918.999878 
	C688.560669,894.843201 688.563110,871.186462 688.565918,847.529785 
	C688.566711,840.895996 688.567261,840.893494 681.690491,840.892212 
	C670.695129,840.890259 659.695129,840.707764 648.706726,840.984009 
	C644.403870,841.092041 643.414001,839.532043 643.430176,835.504272 
	C643.566589,801.519165 643.564697,767.533020 643.441650,733.547791 
	C643.427368,729.606567 644.254700,727.986389 648.641602,728.018982 
	C674.795776,728.213013 700.952209,728.086609 727.107788,728.128296 
	C740.159363,728.149048 747.531311,735.539368 747.549561,748.622925 
	C747.590088,777.610657 747.492432,806.598938 747.650818,835.585876 
	C747.673157,839.673950 746.611511,841.152954 742.356506,840.983643 
	C734.372437,840.665894 726.363525,841.025269 718.371765,840.826843 
	C714.860718,840.739563 713.713013,841.954651 713.822693,845.446594 
	C714.047485,852.603149 714.050903,859.777039 713.817688,866.933044 
	C713.705750,870.370239 715.113892,871.208069 718.214966,871.159546 
	C726.376160,871.031738 734.544983,871.274902 742.702026,871.051392 
	C746.277100,870.953430 747.830261,871.787659 747.649841,875.724304 
	C747.347107,882.331116 747.567078,888.961914 747.567078,896.111938 
	C737.797668,896.111938 728.660095,896.394409 719.552124,895.997070 
	C714.736206,895.786987 713.726379,897.524048 713.799011,901.959412 
	C714.044373,916.949097 713.895203,931.945251 713.896790,946.938904 
	C713.896973,948.569519 713.896790,950.200195 713.896790,952.688660 
	C725.751709,949.747375 736.946045,946.970032 748.889893,944.006653 
	C748.889893,952.147095 748.996704,959.593689 748.762146,967.029602 
	C748.730896,968.021545 747.120117,969.547180 745.988159,969.836121 
	C709.224426,979.221069 672.429993,988.486023 635.636047,997.752258 
	C635.182495,997.866516 634.675049,997.766479 633.321838,997.766479 
	C633.321838,990.089355 633.162354,982.526733 633.506104,974.987000 
	C633.553772,973.942322 635.954407,972.531799 637.491882,972.104736 
	C647.957214,969.197632 647.979309,969.268005 647.979797,958.599487 
	C647.981201,927.112732 648.117554,895.624878 647.845886,864.140442 
	C647.800415,858.869202 649.361084,857.445007 654.328552,857.921997 
	C658.785400,858.349915 663.336060,858.271118 667.808411,857.931152 
	C672.023499,857.610718 673.136597,859.137268 673.115173,863.268494 
	C672.953552,894.421265 673.025024,925.575134 673.023804,956.728699 
	C673.023682,958.511169 673.023743,960.293579 673.023743,962.982727 
	C678.060242,961.723450 682.443054,960.898926 686.583801,959.404175 
	C687.637329,959.023865 688.455933,956.522034 688.475769,954.983276 
	C688.628906,943.157104 688.558533,931.328064 688.557800,918.999878 
M669.234192,814.956726 
	C670.002563,815.219055 670.770081,815.707642 671.539307,815.710266 
	C687.203857,815.764038 702.869202,815.696106 718.533020,815.819336 
	C722.301819,815.848999 722.328308,813.682739 722.320618,810.948669 
	C722.271057,793.284119 722.228027,775.618835 722.354919,757.955078 
	C722.378967,754.613098 721.551575,753.141663 717.910461,753.177429 
	C702.913574,753.324463 687.913818,753.309937 672.916565,753.182251 
	C669.569214,753.153809 668.652527,754.444641 668.676392,757.614380 
	C668.818115,776.443359 668.802734,795.273560 669.234192,814.956726 
z"/>
<path fill="#2947BB" opacity="1.000000" stroke="none" 
	d="
M162.999969,1002.766479 
	C153.000854,1002.769897 143.498718,1002.890869 134.006042,1002.645203 
	C132.645676,1002.609924 130.224075,1000.856934 130.173904,999.808960 
	C129.832596,992.679871 129.995331,985.526611 129.995331,977.857971 
	C132.297073,977.725769 134.225937,977.522034 136.155136,977.518982 
	C152.320236,977.493164 168.485565,977.468079 184.650421,977.536865 
	C187.636612,977.549561 189.676208,977.384949 189.647644,973.394775 
	C189.487823,951.064697 189.560684,928.732971 189.540024,906.401794 
	C189.539413,905.746582 189.383408,905.091492 189.204178,903.685913 
	C143.884430,903.685913 98.528954,903.685913 52.557861,903.685913 
	C52.557861,895.657166 52.460564,888.369629 52.678242,881.091553 
	C52.706158,880.158264 54.226021,878.850952 55.316246,878.474792 
	C56.660454,878.010925 58.278584,878.329529 59.778328,878.329468 
	C100.941147,878.328186 142.104080,878.290405 183.266602,878.398376 
	C186.867477,878.407837 189.502441,877.421631 192.109985,874.895569 
	C207.301315,860.179077 222.657791,845.633179 237.942993,831.013428 
	C238.975494,830.025879 239.881271,828.905762 241.975769,826.607666 
	C190.253159,826.607666 139.970383,826.607666 89.067902,826.607666 
	C89.067902,818.387878 88.968307,811.097168 89.189087,803.816162 
	C89.217926,802.864746 90.773537,801.377136 91.829803,801.163086 
	C93.910652,800.741211 96.137299,801.038086 98.303635,801.038574 
	C150.798645,801.050049 203.293671,801.076294 255.788681,801.057678 
	C263.795624,801.054871 270.070892,804.036743 273.864166,811.268372 
	C278.195557,819.525879 276.608704,828.821106 269.484680,835.436279 
	C256.303467,847.676025 242.944077,859.723877 229.658630,871.851379 
	C227.751770,873.591980 225.843582,875.331177 222.890930,878.024231 
	C226.028625,878.171692 227.747208,878.321838 229.465866,878.322815 
	C255.296783,878.338074 281.128448,878.434998 306.957886,878.239075 
	C311.519440,878.204468 313.268921,879.385864 312.861969,884.126831 
	C312.450165,888.924011 312.531647,893.801392 312.858093,898.612427 
	C313.135956,902.706543 311.526978,903.663574 307.675720,903.645264 
	C278.845764,903.507690 250.014816,903.570251 221.184174,903.570190 
	C219.369080,903.570190 217.554001,903.570190 214.926300,903.570190 
	C214.926300,905.723938 214.926270,907.478882 214.926300,909.233826 
	C214.926804,938.731079 214.859741,968.228638 215.009262,997.725098 
	C215.029007,1001.616943 214.050919,1002.929871 209.992584,1002.869812 
	C194.497925,1002.640625 178.997971,1002.770752 162.999969,1002.766479 
z"/>
<path fill="#2846BB" opacity="1.000000" stroke="none" 
	d="
M1192.205688,933.000000 
	C1192.203003,881.176636 1192.139404,829.853149 1192.298584,778.530273 
	C1192.313232,773.771301 1191.103638,772.226929 1186.202026,772.332886 
	C1171.711670,772.646118 1157.207031,772.611267 1142.714844,772.343445 
	C1137.957397,772.255554 1135.850952,773.167175 1135.136719,778.558105 
	C1130.347534,814.710266 1125.131714,850.806091 1120.010376,886.914001 
	C1115.708496,917.245605 1111.346191,947.568665 1107.013306,977.895874 
	C1106.335205,982.642334 1105.671509,987.390808 1104.943848,992.543396 
	C1097.327271,992.543396 1090.191284,992.568359 1083.055542,992.532654 
	C1079.579346,992.515198 1080.165527,990.107056 1080.471436,987.919861 
	C1082.846924,970.933044 1085.213257,953.944946 1087.606079,936.960571 
	C1092.971802,898.872498 1098.343140,860.785217 1103.729126,822.700012 
	C1106.056274,806.244324 1108.425903,789.794678 1110.903076,772.453064 
	C1103.408569,772.453064 1096.309570,772.445435 1089.210449,772.455261 
	C1082.572632,772.464417 1082.574707,772.472534 1082.573486,765.904541 
	C1082.572510,761.072144 1082.710083,756.233826 1082.510376,751.409485 
	C1082.374878,748.135742 1083.582031,747.002441 1086.853760,747.083862 
	C1094.347778,747.270386 1101.857178,746.952271 1109.344604,747.244141 
	C1113.047974,747.388489 1114.807739,746.340637 1115.171753,742.514709 
	C1115.644043,737.549011 1116.712280,732.640686 1117.206787,727.676025 
	C1117.498169,724.749573 1118.705933,723.556885 1121.622314,723.606628 
	C1127.452759,723.706177 1133.287598,723.704102 1139.117920,723.597351 
	C1142.407471,723.537170 1143.011230,724.996338 1142.503540,727.979797 
	C1141.473877,734.030762 1140.755249,740.134583 1139.815674,746.883362 
	C1141.938232,746.985291 1143.674194,747.138794 1145.410522,747.141296 
	C1162.740479,747.166687 1180.070679,747.101074 1197.400146,747.196716 
	C1210.176758,747.267212 1217.427612,754.692322 1217.428711,767.493591 
	C1217.435181,841.645813 1217.433228,915.798035 1217.421265,989.950256 
	C1217.421021,991.580627 1217.268311,993.211060 1217.168579,995.204041 
	C1215.420898,995.350037 1213.990234,995.572021 1212.559326,995.573730 
	C1193.896362,995.595276 1175.231934,995.465698 1156.571289,995.674011 
	C1152.273926,995.722046 1151.055420,994.223450 1151.289673,990.172974 
	C1151.577637,985.190735 1151.600708,980.163025 1151.277100,975.184937 
	C1151.009399,971.067749 1152.653198,970.077637 1156.491821,970.160461 
	C1166.818359,970.383423 1177.156372,970.085693 1187.482300,970.320496 
	C1191.247314,970.406189 1192.359009,969.212646 1192.281738,965.491699 
	C1192.060303,954.831909 1192.204956,944.164429 1192.205688,933.000000 
z"/>
<path fill="#2946BB" opacity="1.000000" stroke="none" 
	d="
M562.988586,815.620850 
	C569.100708,816.002686 574.877136,815.685059 580.290649,816.936951 
	C587.594910,818.626038 592.204102,825.191284 592.732849,832.687073 
	C592.838196,834.180847 592.824463,835.684692 592.824646,837.183899 
	C592.831543,886.178284 592.778015,935.172913 592.931519,984.166809 
	C592.945190,988.518311 591.885071,989.865051 587.393799,989.802856 
	C568.899475,989.546814 550.398010,989.573242 531.902710,989.790894 
	C527.827087,989.838867 526.663086,988.518677 526.877930,984.655090 
	C527.155151,979.670898 527.198730,974.644043 526.877747,969.665527 
	C526.615784,965.602722 527.757263,964.086609 532.086609,964.220825 
	C542.075867,964.530457 552.081238,964.334717 562.080078,964.311401 
	C563.854736,964.307251 565.629028,964.145874 567.903748,964.032043 
	C567.903748,961.967163 567.903748,960.343994 567.903748,958.720764 
	C567.902954,921.391663 567.833069,884.062317 567.993103,846.733887 
	C568.012207,842.294922 567.066650,840.694275 562.246948,840.718567 
	C522.752441,840.917908 483.256226,840.911011 443.761536,840.735535 
	C439.082947,840.714783 437.938690,842.099121 437.953003,846.671204 
	C438.114563,898.164856 438.056000,949.659119 438.056549,1001.153259 
	C438.056549,1002.773621 438.056549,1004.393982 438.056549,1006.621033 
	C430.200531,1006.621033 422.911041,1006.718811 415.631287,1006.497192 
	C414.722595,1006.469543 413.564484,1004.884766 413.074524,1003.777100 
	C412.643036,1002.801697 412.985443,1001.484070 412.985443,1000.317566 
	C412.985321,948.990112 412.929810,897.662476 413.081696,846.335510 
	C413.094940,841.854004 411.727509,840.673462 407.396332,840.737000 
	C391.568207,840.969299 375.733368,840.726807 359.903992,840.912720 
	C355.916077,840.959534 354.134644,840.016174 354.417542,835.652710 
	C354.772644,830.176086 354.297943,824.645020 354.672546,819.171021 
	C354.758545,817.914734 356.716980,816.600891 358.069122,815.694458 
	C358.758606,815.232239 360.014465,815.615723 361.014343,815.615784 
	C428.173309,815.617493 495.332306,815.618958 562.988586,815.620850 
z"/>
<path fill="#2846BB" opacity="1.000000" stroke="none" 
	d="
M960.017822,882.817078 
	C962.425903,866.579041 964.766296,850.771606 967.088318,834.961426 
	C967.181946,834.323853 967.100220,833.660400 967.100220,832.506958 
	C965.552124,832.358765 964.147766,832.114746 962.742310,832.107971 
	C954.745728,832.069458 946.744995,831.943176 938.753723,832.152649 
	C935.218323,832.245239 933.572144,831.462280 933.812500,827.489136 
	C934.143799,822.011414 934.041321,816.493103 933.835815,811.002991 
	C933.722778,807.982483 934.700378,806.600037 937.777222,806.912781 
	C938.436523,806.979858 939.109009,806.914612 939.775391,806.914612 
	C981.758484,806.914673 1023.741882,806.976440 1065.724365,806.827209 
	C1070.252197,806.811096 1072.074951,807.934387 1071.638062,812.709656 
	C1071.214844,817.335571 1071.226440,822.059814 1071.641846,826.687439 
	C1072.057495,831.319580 1070.172485,832.211243 1065.952026,832.177063 
	C1043.296021,831.993469 1020.636475,832.212097 997.981262,831.982361 
	C993.647888,831.938416 992.323425,833.434448 991.745911,837.480591 
	C986.265259,875.878845 980.597229,914.250366 975.007812,952.633118 
	C974.338684,957.228394 973.816162,961.845032 973.172424,966.867493 
	C995.975525,966.867493 1018.523071,966.867493 1041.611938,966.867493 
	C1041.709595,965.052307 1041.885498,963.277649 1041.888184,961.502747 
	C1041.911133,946.175598 1042.036377,930.846436 1041.813843,915.522583 
	C1041.755493,911.504272 1043.028198,910.289429 1046.929810,910.450806 
	C1053.389771,910.718018 1059.869019,910.523499 1066.826416,910.523499 
	C1066.940430,912.525574 1067.108032,914.113953 1067.109497,915.702393 
	C1067.127319,934.694763 1067.123779,953.687073 1067.119141,972.679443 
	C1067.116455,983.875244 1059.024414,992.443481 1047.740112,992.495544 
	C1014.587463,992.648376 981.433594,992.521423 948.280579,992.623352 
	C944.644775,992.634521 944.122620,991.075317 944.578430,988.009094 
	C948.935852,958.695496 953.233276,929.372986 957.539246,900.051758 
	C958.361389,894.453064 959.145386,888.848877 960.017822,882.817078 
z"/>
<path fill="#2947BB" opacity="1.000000" stroke="none" 
	d="
M484.000000,767.970825 
	C462.846497,767.970825 442.192322,768.056824 421.540100,767.893311 
	C417.723969,767.863098 416.182495,768.730347 416.362305,772.862610 
	C416.687836,780.343811 416.323700,787.852783 416.525940,795.342651 
	C416.617096,798.719116 415.677795,800.226074 412.063812,800.081299 
	C406.576080,799.861511 401.067657,799.874268 395.578583,800.075317 
	C392.147736,800.201111 390.875000,799.100037 390.995453,795.513306 
	C391.252472,787.859924 390.945190,780.188538 391.153259,772.532227 
	C391.247620,769.059570 390.101624,767.861145 386.583801,767.905579 
	C373.760712,768.067749 360.932495,767.848877 348.110291,768.044006 
	C344.297119,768.102051 342.640808,767.197266 342.913788,763.037598 
	C343.262085,757.730652 343.140869,752.377747 342.938660,747.055420 
	C342.812439,743.733337 344.096924,742.776367 347.314636,742.812317 
	C360.304749,742.957764 373.299164,742.755249 386.287994,742.949219 
	C389.945190,743.003784 391.503113,742.033325 391.134491,738.198608 
	C390.848938,735.228088 391.242737,732.196655 391.036560,729.212891 
	C390.818298,726.054932 392.232361,725.148376 395.153168,725.216370 
	C400.813171,725.348145 406.482361,725.383301 412.139923,725.207458 
	C415.356201,725.107483 416.675934,726.203247 416.513672,729.518982 
	C416.305054,733.781677 416.462891,738.062378 416.462891,742.872925 
	C418.758881,742.872925 420.382233,742.872925 422.005585,742.872864 
	C456.816742,742.871826 491.628326,742.783569 526.438477,742.971863 
	C531.179321,742.997498 532.789429,741.797852 532.658997,736.889587 
	C532.349976,725.260437 532.585571,725.209351 544.005371,725.277344 
	C548.303833,725.302979 554.051575,724.002747 556.476746,726.219360 
	C558.751892,728.298828 557.821655,734.230774 557.724854,738.454285 
	C557.642456,742.047485 558.949097,742.969604 562.358521,742.934875 
	C577.180847,742.783997 592.006897,742.977722 606.828552,742.797180 
	C610.662170,742.750488 612.248352,743.739746 611.968750,747.830444 
	C611.628784,752.803955 611.582092,757.843201 611.981384,762.807922 
	C612.338989,767.253845 610.450134,768.088806 606.515686,768.040771 
	C592.027039,767.863770 577.532898,768.106995 563.045593,767.881592 
	C558.887451,767.816956 557.546570,769.054138 557.724365,773.241638 
	C558.049133,780.889893 557.748779,788.562622 557.875061,796.222473 
	C557.920471,798.978149 557.014038,800.131104 554.151001,800.062378 
	C548.324829,799.922363 542.488098,799.885315 536.664978,800.080750 
	C533.204834,800.196838 532.442017,798.579468 532.497681,795.529724 
	C532.634521,788.036926 532.335266,780.530823 532.650085,773.048584 
	C532.821777,768.970215 531.291443,767.874573 527.472534,767.914124 
	C513.149658,768.062683 498.824371,767.971924 484.000000,767.970825 
z"/>
<path fill="#2846BB" opacity="1.000000" stroke="none" 
	d="
M317.024048,780.987732 
	C317.024475,794.114807 317.024475,794.114807 304.640717,794.114563 
	C291.988495,794.114319 291.988495,794.114319 291.993622,781.308777 
	C291.998993,767.966614 291.998962,767.967834 278.862274,767.968018 
	C214.231949,767.968933 149.601624,767.969421 84.971306,767.969177 
	C77.792969,767.969177 77.792870,767.966431 77.798218,774.896790 
	C77.802208,780.060547 78.027565,785.240234 77.658119,790.377075 
	C77.563522,791.692383 75.639030,793.890869 74.470894,793.947632 
	C67.511116,794.285828 60.526596,794.114868 53.057545,794.114868 
	C53.057545,777.062500 53.057545,760.376343 53.057545,743.028748 
	C91.537025,743.028748 130.056137,743.028748 169.301071,743.028748 
	C169.301071,737.961487 169.396988,733.531921 169.265839,729.109070 
	C169.184479,726.365295 170.165054,725.170654 173.013794,725.229736 
	C178.841293,725.350586 184.675095,725.350952 190.502350,725.222351 
	C193.468887,725.156921 194.818451,726.218750 194.628967,729.293762 
	C194.465332,731.949036 194.826172,734.648438 194.532578,737.281189 
	C194.049072,741.617065 195.565186,742.997192 200.056046,742.971802 
	C232.536728,742.788147 265.019073,742.924133 297.500610,742.846191 
	C306.328796,742.825012 312.463165,746.706848 315.907349,754.730530 
	C316.662933,756.490784 316.946411,758.564453 316.982819,760.502502 
	C317.107758,767.162903 317.026642,773.827209 317.024048,780.987732 
z"/>
<path fill="#2947BB" opacity="1.000000" stroke="none" 
	d="
M867.270264,725.510071 
	C868.008545,727.730042 868.613586,729.796021 868.614868,731.862427 
	C868.662231,809.858032 868.654114,887.853699 868.653442,965.849304 
	C868.653442,967.491211 868.653381,969.133118 868.653381,971.445801 
	C881.774109,971.445801 894.489990,971.445801 907.960266,971.445801 
	C907.960266,979.685547 908.050964,987.271118 907.813416,994.846375 
	C907.790833,995.566223 905.716980,996.811951 904.589172,996.819153 
	C885.424377,996.942444 866.258423,996.874207 847.093079,996.945068 
	C844.158386,996.955933 843.325256,995.603821 843.425171,992.959167 
	C843.538330,989.963501 843.460083,986.960449 843.460022,983.960632 
	C843.457825,899.798706 843.503906,815.636597 843.334290,731.475037 
	C843.323792,726.253174 844.901428,724.789612 849.867737,725.165527 
	C855.502869,725.592041 861.190613,725.322998 867.270264,725.510071 
z"/>
<path fill="#2947BB" opacity="1.000000" stroke="none" 
	d="
M825.460754,759.835388 
	C824.080566,807.775635 822.714355,855.235840 821.345154,902.695984 
	C820.667847,926.176575 820.119446,949.662354 819.191528,973.133118 
	C819.004944,977.852112 818.144836,982.866028 816.218079,987.120239 
	C813.236023,993.704529 807.241272,996.787842 800.004272,996.867432 
	C789.175232,996.986572 778.342896,996.815063 767.514587,996.962463 
	C764.293701,997.006226 763.030029,995.994629 763.153870,992.670227 
	C763.364746,987.012939 763.333130,981.338989 763.174255,975.678528 
	C763.089905,972.675781 764.113953,971.539001 767.197205,971.607666 
	C774.691345,971.774536 782.195740,971.518982 789.687805,971.728271 
	C793.190918,971.826111 794.189819,970.582031 794.275146,967.135742 
	C795.269043,926.998779 796.411865,886.865479 797.519653,846.731323 
	C798.572388,808.595520 799.621155,770.459595 800.693848,732.324341 
	C800.892944,725.247986 800.941711,725.249634 807.978638,725.250244 
	C813.788696,725.250732 819.598755,725.250366 825.473572,725.250366 
	C825.473572,736.885437 825.473572,748.120361 825.460754,759.835388 
z"/>
<path fill="#2B49BC" opacity="1.000000" stroke="none" 
	d="
M181.758591,625.946777 
	C171.833893,649.796631 161.951355,673.249695 152.314713,696.803467 
	C150.630203,700.920715 148.571075,702.981567 143.865479,702.443054 
	C139.830490,701.981323 135.700790,702.347412 130.679428,702.347412 
	C134.373199,692.906555 136.973099,684.084900 141.164642,676.098633 
	C146.419434,666.086609 146.020050,657.257874 141.187317,647.048157 
	C133.868835,631.587036 128.153992,615.366394 121.774780,599.461670 
	C121.361481,598.431213 121.093109,597.342712 120.484741,595.419495 
	C126.930115,595.419495 132.855453,595.166504 138.724991,595.626099 
	C139.945831,595.721680 141.379745,598.302429 142.002838,599.999512 
	C146.866180,613.245361 151.555389,626.555115 156.658630,640.854614 
	C157.638000,638.788757 158.328110,637.563171 158.818756,636.262268 
	C163.396713,624.124268 168.039291,612.008911 172.428879,599.802795 
	C173.617523,596.497437 175.235535,595.006653 178.903824,595.261658 
	C184.212311,595.630615 189.562683,595.355164 194.883926,595.599670 
	C197.727051,595.730286 198.791977,594.679626 198.743286,591.898193 
	C198.644135,586.234375 198.813705,580.564941 198.661697,574.903442 
	C198.574097,571.640808 199.902069,570.611694 203.103531,570.529053 
	C216.745758,570.177368 216.743546,570.091675 216.739838,583.482666 
	C216.739792,583.649292 216.735657,583.816040 216.740265,583.982544 
	C216.836517,587.467468 215.776413,591.716553 217.408279,594.188049 
	C218.645050,596.061218 223.313400,595.668579 226.877594,596.367126 
	C226.877594,600.837891 226.877594,605.563538 226.877594,610.379150 
	C226.030304,610.596008 225.410065,610.855164 224.774078,610.902283 
	C216.733917,611.498413 216.736328,611.490601 216.739059,619.828247 
	C216.742325,629.778381 216.739822,639.728516 216.739822,649.370056 
	C217.589355,649.834351 217.855743,650.074829 218.155899,650.129272 
	C220.831055,650.614380 225.708206,650.743774 225.831345,651.581543 
	C226.571060,656.613586 226.320938,661.810730 226.081223,666.937622 
	C226.056351,667.469299 223.928772,668.292114 222.762894,668.316528 
	C216.267105,668.453186 209.759979,668.203003 203.270981,668.454041 
	C199.234665,668.610229 198.632065,666.651306 198.657318,663.258728 
	C198.772690,647.762817 198.783783,632.264832 198.614899,616.769897 
	C198.593811,614.835449 197.341446,611.296021 196.554398,611.266113 
	C192.989868,611.130432 188.419861,608.926575 186.479996,614.526184 
	C185.175735,618.291077 183.431595,621.903625 181.758591,625.946777 
z"/>
<path fill="#2B48BC" opacity="1.000000" stroke="none" 
	d="
M321.745544,596.999756 
	C321.744415,589.333984 321.767853,582.168152 321.727112,575.002625 
	C321.713623,572.631531 321.928314,570.479980 325.047882,570.633545 
	C338.650543,571.303040 352.526520,570.558777 365.787781,573.060425 
	C386.001129,576.873413 397.854156,591.164551 399.344482,611.821411 
	C399.966278,620.440125 399.119507,629.551453 396.916626,637.905090 
	C392.597473,654.284119 380.680817,664.038086 364.370789,666.530151 
	C351.468323,668.501404 338.166138,667.870605 325.039917,668.354004 
	C321.460083,668.485840 321.751648,665.870361 321.752106,663.490906 
	C321.755157,648.159607 321.747833,632.828369 321.744995,617.497070 
	C321.743774,610.831299 321.744995,604.165527 321.745544,596.999756 
M378.730713,635.989685 
	C382.852051,627.121521 382.916748,617.990356 380.578003,608.674500 
	C378.568787,600.671326 373.872284,594.358459 366.144012,592.097778 
	C358.617432,589.896179 350.508636,589.606140 342.620270,588.838074 
	C341.806641,588.758972 339.944977,591.134888 339.932556,592.385132 
	C339.752350,610.542236 339.838928,628.701782 339.763245,646.860352 
	C339.752594,649.422119 340.605408,650.516785 343.219147,650.398804 
	C347.376953,650.211182 351.584198,650.535339 355.696136,650.033508 
	C365.126373,648.882812 373.496948,645.649719 378.730713,635.989685 
z"/>
<path fill="#2947BB" opacity="1.000000" stroke="none" 
	d="
M56.528542,570.615112 
	C66.453743,570.897827 75.996178,570.586243 85.397987,571.590759 
	C103.400742,573.514282 113.676369,589.896362 106.930069,605.355713 
	C105.497169,608.639221 102.990669,611.454285 100.581291,615.084045 
	C100.940033,615.277039 101.549599,615.547485 102.099266,615.909058 
	C113.996948,623.734741 117.560204,632.446411 114.677246,646.625977 
	C112.685432,656.422546 103.500755,665.231018 91.577217,666.638000 
	C79.728897,668.036133 67.692780,667.844666 55.738739,668.343628 
	C52.010384,668.499329 52.562904,665.805603 52.562679,663.511597 
	C52.560997,646.358215 52.569279,629.204834 52.570183,612.051453 
	C52.570831,599.727661 52.585060,587.403809 52.545197,575.080139 
	C52.537071,572.568726 52.520100,570.220093 56.528542,570.615112 
M90.921501,627.255188 
	C84.862419,626.760681 78.807701,626.134888 72.738884,625.932922 
	C71.954414,625.906738 70.434120,628.045898 70.385086,629.228821 
	C70.138107,635.186218 70.106384,641.166931 70.397659,647.119995 
	C70.455711,648.306396 72.204514,650.333618 73.254738,650.387268 
	C77.702972,650.614685 82.226273,650.583496 86.638138,650.005554 
	C92.110161,649.288818 96.451790,646.491089 97.547890,640.664917 
	C98.592010,635.115112 96.699715,630.547791 90.921501,627.255188 
M85.015442,606.860474 
	C89.937607,604.815063 91.562248,600.930481 90.712936,595.974976 
	C89.925423,591.380127 86.585503,589.319092 82.279358,588.822266 
	C79.163536,588.462830 75.990433,588.331360 72.864265,588.498474 
	C71.961349,588.546753 70.418274,589.952271 70.385155,590.783936 
	C70.163177,596.358643 70.269737,601.946472 70.269737,608.265320 
	C75.467102,607.868896 79.874786,607.532715 85.015442,606.860474 
z"/>
<path fill="#2C4ABD" opacity="1.000000" stroke="none" 
	d="
M655.137695,595.135864 
	C677.044434,590.283630 697.275879,603.083008 701.839050,624.656799 
	C702.683105,628.647339 702.391479,632.963745 701.993530,637.068604 
	C701.898926,638.043762 699.271851,639.487366 697.795715,639.504333 
	C682.317505,639.682495 666.836487,639.614136 651.356201,639.613892 
	C649.565125,639.613831 647.774048,639.613892 645.905518,639.613892 
	C646.912170,646.126465 653.888794,651.887268 661.745239,652.987183 
	C669.655823,654.094604 675.881775,650.522095 681.521790,645.080505 
	C685.784363,648.483643 689.773987,651.668884 693.717468,654.817261 
	C686.954041,666.469543 669.804871,672.362183 654.771362,668.474976 
	C638.647461,664.305786 627.017761,649.460632 626.666382,632.599182 
	C626.302551,615.136353 637.413940,600.339050 655.137695,595.135864 
M681.750427,624.170837 
	C685.117371,623.385132 683.234253,621.645813 682.396423,620.238708 
	C676.868896,610.955139 663.395874,607.648071 653.964600,613.304443 
	C649.974915,615.697327 646.587769,618.673035 645.098999,624.183289 
	C657.438538,624.183289 669.166321,624.183289 681.750427,624.170837 
z"/>
<path fill="#2C4ABD" opacity="1.000000" stroke="none" 
	d="
M308.312714,624.861145 
	C309.057617,639.608582 309.057617,639.610657 294.865814,639.615234 
	C282.210480,639.619263 269.555176,639.618042 256.899841,639.619141 
	C255.280136,639.619263 253.660416,639.619141 251.926453,639.619141 
	C254.372910,650.326477 268.465759,656.158630 279.161804,651.354004 
	C279.464355,651.218079 279.755463,651.050781 280.036285,650.873352 
	C282.781738,649.138977 286.387787,645.343689 288.098053,646.062622 
	C292.499237,647.912476 296.060211,651.761414 300.429077,655.181091 
	C291.313690,665.951355 280.307922,670.849731 266.771667,669.525818 
	C249.164688,667.803711 234.486694,653.024170 233.095673,635.968750 
	C231.518372,616.629333 242.887787,600.064392 261.088593,595.183777 
	C278.523773,590.508484 297.118011,599.120667 304.877777,615.581787 
	C306.218658,618.426147 307.089294,621.492249 308.312714,624.861145 
M258.763763,614.097168 
	C256.109772,617.005554 253.455780,619.913940 250.038391,623.658936 
	C264.463715,623.658936 277.087830,623.658936 289.883942,623.658936 
	C285.444214,611.413635 271.349030,607.031006 258.763763,614.097168 
z"/>
<path fill="#2B48BC" opacity="1.000000" stroke="none" 
	d="
M404.397278,644.505920 
	C399.124603,623.699341 407.384094,604.275085 424.679932,597.180908 
	C437.335205,591.990173 449.424194,592.756226 460.097687,602.309875 
	C460.547211,602.712219 461.134949,602.960022 461.722076,603.318787 
	C464.147766,595.328064 464.147766,595.328430 473.111755,595.338684 
	C474.898987,595.340698 476.686218,595.338928 478.766785,595.338928 
	C478.766785,619.861816 478.766785,643.766052 478.766785,668.361694 
	C474.227112,668.361694 469.925385,668.570251 465.670410,668.216553 
	C464.592834,668.126953 463.185028,666.397461 462.787964,665.148438 
	C462.287201,663.573181 462.667175,661.718018 462.667175,658.548035 
	C451.801971,669.082947 440.227875,671.906860 427.265381,667.686584 
	C415.898071,663.985718 408.425568,656.149048 404.397278,644.505920 
M432.699036,651.109680 
	C441.912750,654.420715 450.555084,653.745605 457.430695,646.260681 
	C463.657013,639.482483 464.323212,631.258118 460.973785,622.954773 
	C457.310211,613.872620 448.887939,609.718262 438.108063,611.019897 
	C429.729614,612.031555 422.552948,618.953918 420.989044,627.532288 
	C419.065521,638.083496 422.746887,645.830872 432.699036,651.109680 
z"/>
<path fill="#2B48BC" opacity="1.000000" stroke="none" 
	d="
M508.546722,598.685181 
	C528.380798,587.530029 549.944153,597.191101 552.317261,619.299072 
	C554.027527,635.231873 552.650452,651.496155 552.650452,668.338501 
	C547.683472,668.338501 542.721497,668.578247 537.820496,668.138306 
	C536.827576,668.049194 535.340271,665.406677 535.311951,663.917847 
	C535.099976,652.763550 535.298706,641.601807 535.134277,630.445923 
	C535.085876,627.162109 534.686768,623.767700 533.743103,620.636475 
	C531.660889,613.727112 527.092712,610.700623 519.929626,610.845886 
	C513.110596,610.984192 508.078278,614.577087 506.457184,621.277893 
	C505.530304,625.109253 505.369904,629.184021 505.310547,633.155884 
	C505.161316,643.146179 505.079590,653.145447 505.355286,663.130493 
	C505.473267,667.404175 503.923218,668.498657 499.868073,668.460632 
	C487.385223,668.343384 487.385376,668.488708 487.385986,655.877930 
	C487.386871,637.391663 487.476318,618.904663 487.309784,600.419861 
	C487.275574,596.622314 488.153046,594.708862 492.278076,595.309082 
	C493.746094,595.522644 495.287201,595.489319 496.766724,595.320862 
	C501.159424,594.820801 504.851837,595.142578 504.090576,601.889893 
	C505.950500,600.542908 507.087708,599.719360 508.546722,598.685181 
z"/>
<path fill="#2A47BC" opacity="1.000000" stroke="none" 
	d="
M1050.813599,756.407959 
	C1017.709595,756.405884 985.081299,756.339050 952.453918,756.485168 
	C948.389709,756.503357 946.777893,755.485229 947.039734,751.216492 
	C947.375366,745.743591 947.166321,740.234009 947.104248,734.741272 
	C947.077515,732.377991 947.684570,731.025391 950.451233,731.031616 
	C985.741394,731.111023 1021.031738,731.116577 1056.322021,731.163818 
	C1056.781372,731.164429 1057.240112,731.463074 1057.998047,731.726379 
	C1057.998047,739.745544 1057.998047,747.801575 1057.998047,756.408325 
	C1055.526245,756.408325 1053.407837,756.408325 1050.813599,756.407959 
z"/>
<path fill="#2C4ABD" opacity="1.000000" stroke="none" 
	d="
M567.200562,607.193176 
	C584.011719,589.715088 611.141418,589.658936 624.449829,607.325012 
	C621.037170,610.307251 617.741882,613.561218 614.005127,616.186890 
	C613.080566,616.836609 610.396973,615.891724 609.077942,614.922913 
	C600.891785,608.909973 590.011108,609.107422 582.318665,615.652588 
	C574.913086,621.953674 572.794006,632.795410 577.258301,641.542847 
	C583.576416,653.922791 599.170044,657.041626 609.886414,647.815674 
	C612.450195,645.608459 614.093567,645.417236 616.531860,647.678589 
	C619.299988,650.245850 622.376648,652.480408 625.257812,654.809998 
	C615.598206,670.820007 591.742188,674.432495 574.499756,662.898438 
	C556.457947,650.829834 553.090454,626.071106 567.200562,607.193176 
z"/>
<path fill="#2A47BC" opacity="1.000000" stroke="none" 
	d="
M762.538086,863.296387 
	C763.123413,857.206177 763.772522,851.582397 764.191711,845.941467 
	C764.421326,842.851013 765.693970,841.518921 768.899658,841.621094 
	C774.387451,841.796021 779.893311,841.854858 785.375183,841.604309 
	C789.067932,841.435486 789.950134,842.898499 789.615479,846.318787 
	C787.768433,865.197144 786.060669,884.089111 784.305481,902.976440 
	C783.412659,912.585022 782.378906,922.183594 781.696228,931.807129 
	C781.415344,935.768066 780.041260,937.302551 775.887085,937.064636 
	C769.601929,936.704834 763.280945,936.970764 755.973877,936.970764 
	C758.177795,912.268005 760.341858,888.011780 762.538086,863.296387 
z"/>
<path fill="#2A47BC" opacity="1.000000" stroke="none" 
	d="
M877.257202,861.010010 
	C876.733398,854.616699 876.238037,848.678101 875.660583,841.754028 
	C883.827209,841.754028 891.385803,841.614929 898.922974,841.953125 
	C899.744080,841.989868 900.950500,844.725464 901.116150,846.299927 
	C902.422119,858.713196 903.515381,871.148865 904.680054,883.577026 
	C906.171021,899.487000 907.512756,915.413513 909.261719,931.295105 
	C909.747131,935.703735 908.858276,937.382019 904.196472,937.052490 
	C899.059631,936.689392 893.868713,936.794067 888.717407,937.035950 
	C885.301453,937.196350 884.116638,936.001526 883.818054,932.570374 
	C881.754700,908.858521 879.487427,885.164429 877.257202,861.010010 
z"/>
<path fill="#2A47BC" opacity="1.000000" stroke="none" 
	d="
M790.039429,791.628174 
	C790.992798,799.783142 791.894409,807.481323 792.889099,815.974731 
	C784.738586,815.974731 777.316833,816.075012 769.905029,815.849365 
	C768.965637,815.820679 767.386658,814.162842 767.268982,813.127380 
	C764.905945,792.330505 762.710815,771.514526 760.507812,750.699707 
	C760.459045,750.238770 760.712769,749.745789 760.983032,748.598389 
	C768.283264,748.598389 775.715332,748.429260 783.121216,748.793762 
	C784.147217,748.844299 785.708740,751.451904 785.894653,753.010254 
	C787.410645,765.712524 788.658264,778.446899 790.039429,791.628174 
z"/>
<path fill="#2A47BC" opacity="1.000000" stroke="none" 
	d="
M905.352295,773.645752 
	C904.019958,786.335327 902.638855,798.566895 901.510498,810.821655 
	C901.156433,814.667053 899.875061,816.351624 895.684143,816.103577 
	C889.405701,815.731995 883.088928,816.007019 875.868164,816.007019 
	C876.106934,812.356995 876.202148,809.132568 876.546143,805.934875 
	C878.431396,788.408081 880.476440,770.897766 882.219849,753.357239 
	C882.570496,749.829224 883.602234,748.362244 887.325562,748.504333 
	C893.943726,748.756897 900.578491,748.575317 908.048767,748.575317 
	C907.123657,757.178162 906.262390,765.187439 905.352295,773.645752 
z"/>
<path fill="#FAFBFE" opacity="1.000000" stroke="none" 
	d="
M669.037170,814.530029 
	C668.802734,795.273560 668.818115,776.443359 668.676392,757.614380 
	C668.652527,754.444641 669.569214,753.153809 672.916565,753.182251 
	C687.913818,753.309937 702.913574,753.324463 717.910461,753.177429 
	C721.551575,753.141663 722.378967,754.613098 722.354919,757.955078 
	C722.228027,775.618835 722.271057,793.284119 722.320618,810.948669 
	C722.328308,813.682739 722.301819,815.848999 718.533020,815.819336 
	C702.869202,815.696106 687.203857,815.764038 671.539307,815.710266 
	C670.770081,815.707642 670.002563,815.219055 669.037170,814.530029 
z"/>
<path fill="#FAFBFD" opacity="1.000000" stroke="none" 
	d="
M378.563965,636.330688 
	C373.496948,645.649719 365.126373,648.882812 355.696136,650.033508 
	C351.584198,650.535339 347.376953,650.211182 343.219147,650.398804 
	C340.605408,650.516785 339.752594,649.422119 339.763245,646.860352 
	C339.838928,628.701782 339.752350,610.542236 339.932556,592.385132 
	C339.944977,591.134888 341.806641,588.758972 342.620270,588.838074 
	C350.508636,589.606140 358.617432,589.896179 366.144012,592.097778 
	C373.872284,594.358459 378.568787,600.671326 380.578003,608.674500 
	C382.916748,617.990356 382.852051,627.121521 378.563965,636.330688 
z"/>
<path fill="#F5F6FB" opacity="1.000000" stroke="none" 
	d="
M91.279533,627.420166 
	C96.699715,630.547791 98.592010,635.115112 97.547890,640.664917 
	C96.451790,646.491089 92.110161,649.288818 86.638138,650.005554 
	C82.226273,650.583496 77.702972,650.614685 73.254738,650.387268 
	C72.204514,650.333618 70.455711,648.306396 70.397659,647.119995 
	C70.106384,641.166931 70.138107,635.186218 70.385086,629.228821 
	C70.434120,628.045898 71.954414,625.906738 72.738884,625.932922 
	C78.807701,626.134888 84.862419,626.760681 91.279533,627.420166 
z"/>
<path fill="#ECEFF8" opacity="1.000000" stroke="none" 
	d="
M84.648956,607.028503 
	C79.874786,607.532715 75.467102,607.868896 70.269737,608.265320 
	C70.269737,601.946472 70.163177,596.358643 70.385155,590.783936 
	C70.418274,589.952271 71.961349,588.546753 72.864265,588.498474 
	C75.990433,588.331360 79.163536,588.462830 82.279358,588.822266 
	C86.585503,589.319092 89.925423,591.380127 90.712936,595.974976 
	C91.562248,600.930481 89.937607,604.815063 84.648956,607.028503 
z"/>
<path fill="#F0F3FA" opacity="1.000000" stroke="none" 
	d="
M681.322266,624.177063 
	C669.166321,624.183289 657.438538,624.183289 645.098999,624.183289 
	C646.587769,618.673035 649.974915,615.697327 653.964600,613.304443 
	C663.395874,607.648071 676.868896,610.955139 682.396423,620.238708 
	C683.234253,621.645813 685.117371,623.385132 681.322266,624.177063 
z"/>
<path fill="#F0F3FA" opacity="1.000000" stroke="none" 
	d="
M259.089813,613.912659 
	C271.349030,607.031006 285.444214,611.413635 289.883942,623.658936 
	C277.087830,623.658936 264.463715,623.658936 250.038391,623.658936 
	C253.455780,619.913940 256.109772,617.005554 259.089813,613.912659 
z"/>
<path fill="#F8F9FC" opacity="1.000000" stroke="none" 
	d="
M432.359497,650.928101 
	C422.746887,645.830872 419.065521,638.083496 420.989044,627.532288 
	C422.552948,618.953918 429.729614,612.031555 438.108063,611.019897 
	C448.887939,609.718262 457.310211,613.872620 460.973785,622.954773 
	C464.323212,631.258118 463.657013,639.482483 457.430695,646.260681 
	C450.555084,653.745605 441.912750,654.420715 432.359497,650.928101 
z"/>
</svg>