<svg version="1.1" id="Layer_1" xmlns="http://www.w3.org/2000/svg" xmlns:xlink="http://www.w3.org/1999/xlink" x="0px" y="0px"
	 width="100%" viewBox="0 0 1932 1706" enable-background="new 0 0 1932 1706" xml:space="preserve">
<path fill="#E0E0E0" opacity="1.000000" stroke="none" 
	d="
M1115.000000,1707.000000 
	C744.833313,1707.000000 375.166656,1706.993286 5.500025,1707.093018 
	C1.750920,1707.093994 0.906568,1706.249023 0.907212,1702.500000 
	C1.004357,1136.833374 1.004357,571.166687 0.907212,5.500016 
	C0.906568,1.750986 1.750997,0.906702 5.500013,0.907266 
	C646.500000,1.003834 1287.500000,1.003834 1928.500000,0.907266 
	C1932.249023,0.906702 1933.093506,1.750983 1933.092773,5.500015 
	C1932.995605,571.166687 1932.995605,1136.833374 1933.092773,1702.500000 
	C1933.093384,1706.249023 1932.249146,1707.094849 1928.500000,1707.093384 
	C1657.500000,1706.991089 1386.500000,1707.000000 1115.000000,1707.000000 
z"/>
<path fill="#2D2D2E" opacity="1.000000" stroke="none" 
	d="
M1108.665771,406.754089 
	C1115.784790,410.694885 1116.840942,414.243256 1114.951050,422.855347 
	C1112.024292,436.193237 1106.527466,448.436951 1099.679077,460.091675 
	C1097.350830,464.053894 1098.237183,466.001495 1101.655029,468.628510 
	C1113.804321,477.966858 1124.197876,488.919708 1129.782593,503.533661 
	C1133.553589,513.401733 1130.741333,522.854187 1122.632080,529.575500 
	C1113.924805,536.792480 1103.619385,539.531860 1092.605347,540.347717 
	C1091.229370,540.449707 1089.332397,539.697266 1088.657959,541.553284 
	C1088.143188,542.970276 1089.557251,543.919250 1090.297119,544.971069 
	C1109.346680,572.051208 1128.441528,599.099670 1147.410278,626.236267 
	C1149.443726,629.145386 1151.053833,629.971558 1154.153687,627.658081 
	C1156.804565,625.679565 1160.020874,624.509583 1163.340942,623.942993 
	C1175.917236,621.796936 1184.915039,628.407532 1187.143921,641.444153 
	C1189.213501,653.549683 1188.223022,665.721130 1187.645996,677.860291 
	C1187.477539,681.407654 1188.220947,684.285339 1190.265381,687.160461 
	C1204.629761,707.360657 1219.143921,727.462830 1233.050415,747.975647 
	C1237.844360,755.046814 1243.322144,761.947937 1245.785889,770.393860 
	C1249.259521,782.300781 1241.716797,793.390564 1229.308105,794.167114 
	C1215.430786,795.035706 1204.963989,788.339478 1196.813232,777.798279 
	C1191.833008,771.357483 1187.547363,764.382507 1182.823730,757.737061 
	C1182.071411,756.678833 1181.585205,754.644287 1179.608276,755.274597 
	C1178.110840,755.752075 1178.161377,757.381958 1177.950562,758.660156 
	C1172.829956,789.713379 1166.851807,820.605164 1160.005249,851.318726 
	C1154.067505,877.955139 1147.871094,904.536438 1141.507812,931.074707 
	C1135.025757,958.108826 1128.320312,985.090942 1121.494385,1012.040527 
	C1113.649902,1043.011719 1105.015137,1073.769165 1095.581055,1104.295288 
	C1084.577515,1139.900513 1072.338013,1175.089355 1059.260132,1209.979248 
	C1046.415771,1244.246216 1031.748901,1277.759644 1017.094482,1311.284912 
	C983.109558,1389.032471 942.505188,1463.215454 896.986206,1534.728516 
	C875.133545,1569.060425 850.706543,1601.521118 821.360962,1629.914429 
	C804.466125,1646.261475 786.593689,1661.539307 764.769043,1671.183228 
	C746.690674,1679.171631 730.669128,1674.953979 721.882324,1660.182373 
	C718.620422,1654.698853 716.525269,1648.746826 715.187927,1642.519165 
	C711.221741,1624.049683 711.929504,1605.363647 713.253662,1586.759644 
	C716.041199,1547.596313 723.770996,1509.272461 733.932678,1471.399292 
	C737.768433,1457.103271 741.185913,1442.694580 745.730835,1428.592896 
	C746.167236,1427.238892 747.123596,1425.474243 745.743286,1424.390015 
	C744.272522,1423.234741 742.514404,1424.439819 741.061035,1425.039307 
	C700.009460,1441.968384 658.762756,1458.433105 618.612732,1477.480835 
	C582.998901,1494.376465 547.157654,1510.771240 510.000763,1524.084595 
	C491.610443,1530.673828 472.896851,1535.901001 453.367279,1537.822144 
	C445.635437,1538.582764 437.924957,1538.117798 430.590881,1535.895996 
	C411.263855,1530.040894 405.671204,1515.742554 410.505280,1496.560425 
	C415.200592,1477.928955 426.166107,1462.520020 437.551483,1447.504150 
	C463.318085,1413.521606 493.541962,1383.730591 525.692383,1355.940674 
	C568.264709,1319.142578 612.125366,1283.915527 658.114380,1251.421265 
	C665.586060,1246.141968 673.296326,1241.201050 680.851135,1236.037720 
	C681.862976,1235.346191 683.661926,1234.966309 683.314392,1233.285522 
	C682.962036,1231.581421 681.186340,1231.969238 679.982056,1231.849365 
	C671.033447,1230.957764 662.015747,1230.567383 653.130432,1229.264893 
	C599.473450,1221.400024 548.962097,1204.616089 503.211151,1174.990845 
	C491.271088,1167.259399 480.472443,1158.015015 474.828339,1144.276611 
	C469.509308,1131.329468 474.306091,1118.945923 487.034576,1113.057373 
	C498.175110,1107.903442 510.190460,1107.158325 522.193542,1106.752319 
	C541.014160,1106.115479 559.847656,1107.043091 578.678345,1106.249878 
	C602.355652,1105.252441 625.794312,1102.491577 649.032715,1097.899170 
	C650.918091,1097.526611 652.416992,1096.939087 653.499451,1095.166626 
	C661.650269,1081.820190 673.292297,1072.449585 687.260925,1065.761475 
	C687.855896,1065.476685 688.402527,1065.074219 688.929138,1064.670898 
	C689.175110,1064.482422 689.319214,1064.161133 689.593994,1063.784058 
	C688.980164,1062.088257 687.292664,1061.677368 685.915283,1060.931519 
	C654.380493,1043.855469 633.399414,1018.442688 625.051819,983.271118 
	C622.498413,972.512634 622.149719,961.495117 623.373108,950.471802 
	C623.552124,948.859314 624.330933,947.132935 621.849304,946.490295 
	C607.375488,942.742126 597.220093,932.953064 588.278870,921.803406 
	C574.732117,904.910706 567.256653,885.322998 563.874756,864.069336 
	C558.339172,829.281677 562.700378,796.002258 579.551025,764.804138 
	C588.317627,748.573242 600.060669,734.950317 616.389465,725.733765 
	C618.246338,724.685669 620.092651,723.573792 619.665710,720.749939 
	C615.663147,694.279907 623.741333,671.006836 639.309998,650.094177 
	C657.738708,625.339600 682.609314,609.621887 711.840942,600.552795 
	C731.666138,594.401978 751.965759,592.416321 772.576599,594.983887 
	C787.885803,596.890991 802.538879,601.203491 815.966736,608.998413 
	C818.250793,610.324280 820.128662,610.482422 822.517883,609.711975 
	C857.267944,598.506531 889.978699,602.968994 920.119324,623.476379 
	C935.257751,633.776489 945.549988,647.774048 947.845703,666.615540 
	C947.926270,667.277100 948.010803,667.939209 948.057861,668.603638 
	C948.739868,678.228271 950.828796,685.030579 956.731567,692.858887 
	C968.739868,708.784485 977.166260,726.671509 985.973999,744.397339 
	C991.824829,756.172180 1000.517578,765.294250 1012.681519,771.017456 
	C1022.484192,775.629700 1030.845215,782.114197 1036.074341,791.980103 
	C1038.378296,796.327026 1039.535400,793.113586 1040.591919,791.135437 
	C1048.191162,776.907104 1055.661377,762.609497 1063.300049,748.402527 
	C1078.841064,719.498230 1095.922729,691.553223 1115.709473,665.331055 
	C1117.523926,662.926514 1117.651611,661.278748 1115.941162,658.760620 
	C1096.779419,630.550415 1077.703247,602.281921 1058.694580,573.968201 
	C1056.136353,570.157593 1055.188843,572.350098 1053.816772,574.757568 
	C1048.529175,584.035828 1043.059326,593.181458 1034.070190,599.518982 
	C1031.474854,601.348755 1028.831299,603.152222 1025.704468,603.845093 
	C1021.796692,604.711121 1018.269836,602.143433 1016.213379,597.154541 
	C1013.726624,593.111755 1015.815247,590.209290 1018.519897,588.286987 
	C1032.539917,578.322449 1039.060791,563.791321 1043.664673,548.021057 
	C1045.251587,542.585205 1046.620117,537.061218 1049.214966,531.997009 
	C1053.408447,523.812805 1059.593018,519.102600 1069.405396,519.180725 
	C1078.365723,519.252197 1087.317993,520.596008 1096.312256,519.358337 
	C1100.022339,518.847778 1103.484131,517.844910 1106.725464,516.117249 
	C1110.786133,513.952942 1111.589600,511.613617 1109.415771,507.476593 
	C1105.022461,499.115997 1098.899170,492.126892 1091.643433,486.122437 
	C1089.076294,483.997894 1086.214722,482.262268 1083.576538,480.230377 
	C1076.098999,474.471436 1074.617676,468.071655 1078.948730,459.606201 
	C1080.918579,455.755768 1083.076172,451.999969 1085.106201,448.176239 
	C1090.457153,438.096588 1094.395020,427.540802 1096.429688,416.299530 
	C1097.122437,412.471680 1099.135864,409.525543 1102.322388,407.394501 
	C1104.155884,406.168243 1106.120605,405.219879 1108.665771,406.754089 
z"/>
<path fill="#FADC5D" opacity="1.000000" stroke="none" 
	d="
M1108.955688,406.636383 
	C1101.908691,407.885468 1099.170898,410.221741 1098.037598,417.076416 
	C1095.577026,431.956970 1088.871094,445.108948 1081.712280,458.098267 
	C1075.767456,468.884979 1076.862183,473.737183 1087.052002,480.684418 
	C1096.828857,487.350128 1104.873047,495.631226 1110.739014,505.914948 
	C1114.154907,511.903534 1113.185547,514.515747 1107.076538,517.923218 
	C1100.364380,521.667175 1093.045898,521.706909 1085.716187,521.552368 
	C1081.061523,521.454224 1076.416138,520.974487 1071.762939,520.734863 
	C1060.084106,520.133423 1053.692383,524.242737 1049.531250,535.175293 
	C1046.043213,544.339417 1044.440674,554.142578 1040.222900,563.061584 
	C1035.503662,573.040894 1030.327026,582.680481 1020.429199,588.677124 
	C1017.633850,590.370605 1016.442261,593.030640 1016.086548,596.543579 
	C1008.119019,594.856384 1003.507202,588.688599 999.150513,582.754578 
	C990.279846,570.672180 983.187195,557.517151 977.650818,543.536194 
	C976.384338,540.338013 975.547668,537.394287 970.199280,537.353088 
	C953.788513,537.226807 937.292542,536.500610 921.554993,530.894226 
	C915.963867,528.902405 911.026794,525.845581 907.882141,520.597595 
	C903.120422,512.650696 904.537354,503.873199 912.580627,495.149048 
	C925.226685,481.432465 938.996399,468.893250 954.012268,457.794525 
	C956.842346,455.702698 957.989807,453.950623 957.456421,450.045410 
	C954.469727,428.178680 951.023865,406.332123 951.079163,384.167938 
	C951.091064,379.402222 951.996521,374.906464 956.550415,371.731934 
	C957.881531,372.152466 958.266968,373.104675 958.429688,374.084381 
	C959.125854,378.276276 961.992432,380.475342 965.708130,381.478119 
	C978.576599,384.951019 988.343506,393.190216 997.741760,402.008881 
	C1002.842041,406.794647 1007.328064,412.246063 1012.791687,416.622437 
	C1018.422607,421.132782 1024.491455,418.451263 1025.389282,411.311615 
	C1025.534424,410.156830 1025.519653,408.979340 1026.211426,407.592041 
	C1026.734131,407.368469 1027.211670,407.331329 1027.354614,407.532288 
	C1033.184082,415.724915 1039.068481,411.808838 1045.534912,408.135681 
	C1055.774170,402.319397 1066.292725,396.948700 1078.153809,393.652039 
	C1079.604736,394.534149 1079.878906,395.857361 1080.430542,397.031006 
	C1081.780762,399.903534 1083.799805,402.044128 1087.192749,401.681732 
	C1090.418335,401.337189 1092.460083,399.286987 1093.290161,396.112335 
	C1093.537842,395.165375 1093.721802,394.195892 1094.521484,393.113342 
	C1102.515259,394.141479 1106.540283,399.349792 1108.955688,406.636383 
z"/>
<path fill="#292929" opacity="1.000000" stroke="none" 
	d="
M1084.641479,243.886871 
	C1080.681152,225.834625 1075.783813,208.576218 1065.103882,193.614822 
	C1059.013306,185.082626 1051.614014,178.046982 1041.652832,174.089203 
	C1038.506836,172.839157 1035.363403,172.240036 1031.942383,172.291397 
	C1026.478027,172.373444 1022.643372,169.346878 1021.560242,164.674438 
	C1020.615601,160.599396 1023.128235,155.761383 1027.940430,153.996109 
	C1046.635132,147.138138 1058.745239,132.990372 1069.160034,117.038788 
	C1081.032471,98.854813 1088.900269,79.038010 1092.497559,57.560959 
	C1093.520264,51.455303 1097.744019,47.410179 1102.553467,47.532028 
	C1107.491699,47.657143 1111.284424,51.540234 1112.109253,57.961601 
	C1114.233398,74.500107 1116.827393,90.931953 1123.395874,106.402336 
	C1131.204956,124.794640 1141.961792,140.643372 1161.374878,148.643524 
	C1164.460449,149.915085 1167.597534,150.826782 1171.030518,150.849472 
	C1176.488037,150.885513 1180.343994,153.652420 1181.352783,157.826233 
	C1182.461182,162.412476 1180.206787,167.276901 1174.885620,169.457947 
	C1165.400146,173.345856 1156.673828,178.410004 1148.813354,184.902069 
	C1126.051025,203.701660 1112.792725,228.009995 1107.514648,256.874573 
	C1106.874878,260.373657 1107.235962,263.812134 1107.696289,267.304321 
	C1108.528687,273.620544 1105.106445,278.582489 1099.490479,279.604736 
	C1094.176758,280.571930 1090.427002,277.530701 1088.174927,271.441406 
	C1086.184814,266.060089 1087.414185,260.527679 1086.540039,255.135422 
	C1085.954346,251.521973 1085.317993,247.916718 1084.641479,243.886871 
z"/>
<path fill="#2E2E2E" opacity="1.000000" stroke="none" 
	d="
M826.272217,303.166138 
	C830.541931,305.239655 834.726746,306.161285 838.995728,307.004150 
	C844.622314,308.115021 848.163635,312.508972 847.686951,317.000732 
	C847.189636,321.685822 843.112488,325.908844 837.724487,325.835327 
	C826.321960,325.679749 818.765625,332.450775 811.808289,339.836426 
	C797.580444,354.940308 790.579346,373.374786 788.664917,393.850067 
	C788.398682,396.697571 788.092224,399.472931 786.870483,402.080902 
	C785.221497,405.601105 782.441650,407.392456 778.560791,407.394501 
	C770.758484,407.398590 765.075073,402.410461 763.700989,394.700806 
	C757.700195,361.031555 738.336975,339.178223 705.578613,329.264404 
	C697.178223,326.722168 693.712402,320.486206 697.471802,314.501099 
	C699.646912,311.038208 702.875916,309.595032 706.836609,309.995300 
	C732.238586,312.562500 757.047241,289.893524 759.547119,263.673920 
	C760.052917,258.369812 760.469849,253.054108 760.777405,247.735077 
	C761.196533,240.487930 764.232544,236.344650 769.705627,235.832932 
	C775.248840,235.314651 781.402466,239.967514 782.410156,246.339966 
	C783.932556,255.967422 788.238220,264.337067 793.231018,272.407043 
	C801.345154,285.522278 811.708313,296.346375 826.272217,303.166138 
z"/>
<path fill="#303030" opacity="1.000000" stroke="none" 
	d="
M1344.267334,736.210083 
	C1343.190063,736.275391 1342.523682,736.291321 1341.857910,736.319031 
	C1334.099243,736.641846 1334.115112,736.642090 1334.230347,744.269897 
	C1334.315918,749.933777 1334.484985,755.600769 1334.376465,761.261841 
	C1334.261719,767.245239 1330.934204,771.127930 1325.741577,771.778748 
	C1321.092529,772.361450 1316.924438,769.133972 1315.708130,763.303345 
	C1314.342163,756.755005 1314.854614,750.024170 1314.842285,743.384277 
	C1314.834351,739.137451 1313.334473,737.619324 1309.263184,738.203735 
	C1306.629517,738.581665 1303.976807,738.966614 1301.324097,739.040955 
	C1295.933960,739.191956 1291.860962,735.812927 1291.508423,731.135803 
	C1291.149414,726.372864 1294.017700,722.865417 1299.386963,721.937622 
	C1303.154541,721.286621 1306.978516,720.901978 1310.793335,720.605286 
	C1313.311523,720.409485 1314.322144,719.291138 1314.199341,716.797852 
	C1313.994263,712.639038 1313.823853,708.473328 1313.823853,704.310547 
	C1313.823853,697.478210 1317.473633,693.012146 1323.041260,692.806519 
	C1328.731079,692.596436 1332.617798,696.614380 1333.133179,703.498230 
	C1333.394165,706.982300 1333.499756,710.498596 1333.352661,713.986694 
	C1333.208496,717.402466 1334.269897,719.035461 1337.931885,718.378662 
	C1339.390747,718.117004 1340.923218,718.205139 1342.420654,718.229492 
	C1348.574829,718.329224 1352.735962,721.437805 1353.326782,726.331360 
	C1353.874878,730.869507 1350.711426,734.466980 1344.267334,736.210083 
z"/>
<path fill="#303030" opacity="1.000000" stroke="none" 
	d="
M1258.001953,381.345276 
	C1264.978394,377.755432 1271.582031,374.256561 1278.283691,370.956635 
	C1284.522827,367.884491 1290.079346,369.412842 1292.785767,374.711090 
	C1295.197510,379.432434 1293.151367,384.580811 1287.008301,387.715363 
	C1263.368896,399.777313 1239.674438,411.732269 1215.932251,423.590332 
	C1210.248901,426.428986 1204.707031,424.599213 1202.259399,419.623322 
	C1199.920654,414.868561 1201.692627,409.831207 1207.465698,406.858887 
	C1224.131592,398.278412 1240.927368,389.950287 1258.001953,381.345276 
z"/>
<path fill="#303030" opacity="1.000000" stroke="none" 
	d="
M814.377563,538.659058 
	C808.250000,537.618835 805.002869,534.582153 805.004089,530.282898 
	C805.005371,525.828308 808.763428,521.665527 814.251465,521.580017 
	C819.954529,521.491150 821.468201,519.419434 820.538574,514.025085 
	C819.836304,509.950043 820.227173,505.720642 821.260315,501.635986 
	C822.329590,497.408630 825.100281,494.828461 829.388672,494.900604 
	C833.406555,494.968231 836.077087,497.431213 837.206543,501.433655 
	C838.359985,505.521057 837.852295,509.711884 838.034790,513.848083 
	C838.194336,517.464905 838.864319,519.686707 843.289856,519.867798 
	C847.207153,520.028137 850.634705,522.160950 852.321594,526.035217 
	C855.005859,532.200073 850.706543,538.722168 843.855469,538.218140 
	C839.347717,537.886597 838.676514,539.651672 839.183838,543.309265 
	C839.640564,546.601868 839.820251,549.936523 840.359863,553.213440 
	C841.564331,560.527283 839.236084,565.015808 833.592957,565.910156 
	C827.623657,566.856201 822.269714,562.275330 821.593811,555.389404 
	C821.253296,551.919739 821.007874,548.377319 821.319824,544.921997 
	C821.780762,539.816040 819.800903,537.824280 814.377563,538.659058 
z"/>
<path fill="#303030" opacity="1.000000" stroke="none" 
	d="
M1212.105957,463.947113 
	C1221.682251,463.237396 1230.711792,465.157166 1239.835693,465.713562 
	C1252.956055,466.513733 1266.038086,467.960144 1279.128052,469.219086 
	C1281.767944,469.472961 1284.417969,469.941254 1286.979126,470.626190 
	C1291.874756,471.935455 1294.425659,475.419861 1294.179810,480.050934 
	C1293.926025,484.832031 1290.701660,488.570099 1285.528320,488.667725 
	C1279.059937,488.789734 1272.558472,488.219360 1266.100830,487.626038 
	C1249.365601,486.088379 1232.652466,484.308563 1215.916870,482.776642 
	C1211.693970,482.390106 1208.102905,481.283386 1205.840210,477.419342 
	C1202.765015,472.167633 1205.015991,467.055786 1212.105957,463.947113 
z"/>
<path fill="#31302D" opacity="1.000000" stroke="none" 
	d="
M1026.173828,407.086853 
	C1026.579956,410.074493 1027.445679,412.891052 1026.016113,415.590790 
	C1023.196960,420.914734 1016.777405,421.782806 1011.625671,417.319946 
	C1004.233765,410.916443 997.905884,403.394714 990.383240,397.100830 
	C982.561646,390.556885 974.365173,384.830963 964.288025,382.289307 
	C959.282898,381.026825 956.722473,377.793793 956.988159,372.064453 
	C960.751160,365.984528 964.957275,364.851837 972.572815,367.159485 
	C984.441345,370.755829 994.330139,377.683167 1003.603516,385.585541 
	C1011.438049,392.261871 1018.959778,399.290009 1026.173828,407.086853 
z"/>
<path fill="#363636" opacity="1.000000" stroke="none" 
	d="
M1229.339111,873.384521 
	C1227.725952,876.147278 1226.127075,878.446960 1223.696777,880.046936 
	C1220.837402,881.929321 1217.795044,882.397949 1214.768311,880.752563 
	C1211.794556,879.135925 1210.279907,876.476990 1210.201294,873.007874 
	C1210.061890,866.851746 1216.104126,860.662354 1222.186646,860.809631 
	C1228.246704,860.956360 1231.153809,865.826660 1229.339111,873.384521 
z"/>
<path fill="#363636" opacity="1.000000" stroke="none" 
	d="
M1471.851807,554.204102 
	C1476.982178,555.309570 1480.509155,557.860596 1481.020874,563.021118 
	C1481.427368,567.120850 1479.033447,569.876343 1475.516968,571.675720 
	C1470.529053,574.228088 1465.745850,572.869507 1463.169556,568.217896 
	C1460.825439,563.985352 1462.464233,558.322693 1466.815063,555.670044 
	C1468.252563,554.793640 1469.787842,554.192932 1471.851807,554.204102 
z"/>
<path fill="#363636" opacity="1.000000" stroke="none" 
	d="
M564.080811,296.173492 
	C563.670898,289.727997 566.003479,286.095734 570.709717,285.373138 
	C575.244324,284.676849 581.943054,289.669708 582.977966,294.517242 
	C583.794739,298.342834 580.923828,302.560181 576.544556,303.967773 
	C571.887268,305.464722 566.876404,302.458771 564.080811,296.173492 
z"/>
<path fill="#363636" opacity="1.000000" stroke="none" 
	d="
M1094.595947,392.604248 
	C1094.681030,396.054443 1094.598511,399.222900 1091.624146,401.361511 
	C1089.313110,403.023132 1086.848267,403.766693 1084.132935,402.601868 
	C1080.561523,401.069763 1078.770874,398.289825 1078.671631,393.999390 
	C1083.327026,385.328644 1088.905884,384.880981 1094.595947,392.604248 
z"/>
<path fill="#9484FB" opacity="1.000000" stroke="none" 
	d="
M687.827393,1194.642090 
	C689.279419,1195.502441 690.478577,1196.195557 691.896851,1197.164307 
	C693.222290,1198.111938 694.400879,1198.665161 695.674072,1199.675781 
	C697.767151,1200.035034 699.006897,1201.413452 700.823486,1202.438354 
	C701.626099,1202.889404 702.119812,1203.145020 702.772339,1203.681763 
	C703.492859,1203.983032 703.993774,1204.111450 704.794189,1204.490845 
	C705.628113,1204.912109 706.125854,1205.152222 706.780762,1205.682495 
	C707.500305,1205.967285 707.999756,1206.081787 708.803284,1206.435913 
	C709.646973,1206.888184 710.158325,1207.152222 710.873840,1207.644775 
	C713.252380,1208.532349 715.378479,1209.279663 717.810791,1210.249878 
	C718.675720,1210.815186 719.229431,1211.165283 720.088135,1211.597412 
	C721.430542,1211.846802 722.449829,1212.042114 723.784912,1212.469971 
	C724.687561,1212.915527 725.243591,1213.189575 726.062500,1213.610596 
	C727.396484,1213.856201 728.426697,1214.035278 729.777588,1214.445435 
	C730.704895,1214.912476 731.285156,1215.200195 732.154358,1215.588135 
	C733.789001,1215.804688 735.100769,1215.988281 736.757019,1216.375000 
	C737.955933,1216.950562 738.914490,1217.027100 740.073975,1217.576416 
	C741.116577,1217.677246 741.816833,1217.706543 742.842957,1217.872681 
	C745.293640,1218.745361 747.535522,1218.950806 750.074585,1219.551270 
	C755.350891,1219.397217 753.851257,1222.007935 752.337463,1224.793701 
	C752.029419,1225.464844 751.959595,1225.842407 751.755127,1226.483154 
	C751.597168,1227.302734 751.545044,1227.853882 751.266846,1228.758301 
	C749.774292,1235.795166 749.274963,1242.477905 751.134399,1249.527588 
	C751.870117,1251.524414 752.539795,1253.151123 753.256165,1255.150635 
	C753.358093,1256.350220 753.984863,1256.867920 754.547363,1257.745117 
	C755.092346,1258.472656 755.468811,1258.966553 755.906372,1259.770508 
	C764.063904,1272.388550 775.602356,1278.227051 790.209839,1278.534424 
	C796.704102,1278.670776 803.071411,1278.220215 809.629883,1276.021973 
	C810.587891,1275.802368 811.171753,1275.676025 812.056091,1275.572144 
	C813.446411,1275.560181 814.354004,1274.940918 815.638306,1274.490234 
	C816.579590,1274.098999 817.248535,1273.874634 818.273804,1273.666626 
	C819.281494,1273.614380 819.761108,1273.167847 820.616821,1272.789673 
	C837.675964,1265.481079 851.610168,1254.902710 861.452332,1238.925171 
	C864.840759,1237.332275 867.243652,1239.346802 869.705566,1240.481689 
	C881.664001,1245.994507 894.219055,1248.674805 907.351868,1248.445801 
	C911.625610,1248.371216 915.904053,1247.760010 920.376709,1246.276611 
	C921.416016,1245.767090 922.139771,1245.535400 923.237549,1245.281494 
	C924.271851,1245.017456 924.972900,1244.918945 925.981689,1244.639404 
	C927.863220,1244.299194 929.276123,1243.702515 930.869263,1242.678223 
	C931.320007,1242.441528 931.467346,1242.333130 931.885986,1242.183594 
	C932.731995,1241.155518 933.791199,1241.676636 934.838074,1241.141968 
	C945.213745,1235.459839 953.331848,1228.085693 957.280151,1216.970337 
	C960.840942,1206.945923 960.506592,1196.879517 955.744995,1187.392578 
	C953.624084,1183.166992 954.426086,1181.601562 958.408203,1179.496826 
	C987.313293,1164.219238 1007.679260,1141.452026 1017.987000,1110.160034 
	C1029.869141,1074.088623 1017.533203,1036.409912 987.454834,1017.310852 
	C970.536011,1006.567688 951.837402,1002.977173 932.014648,1004.505615 
	C930.125244,1004.651184 928.165283,1005.565918 925.783264,1003.898926 
	C930.378235,1000.570618 935.266602,998.180603 939.303345,994.590576 
	C949.818970,985.238342 956.715271,974.153076 956.885986,959.604004 
	C956.928772,955.959290 956.126404,952.686646 953.818542,949.426636 
	C953.909058,943.662476 956.145142,939.378601 961.042847,936.361084 
	C967.808960,944.043457 973.623840,943.664368 978.366577,934.751892 
	C993.289307,906.709717 1009.242920,879.283325 1026.578247,852.665161 
	C1037.743774,835.520691 1047.256958,817.428467 1057.097656,799.526489 
	C1058.461060,797.046082 1059.870972,796.248291 1062.829590,796.021790 
	C1072.414917,795.288086 1081.838013,793.098328 1091.588501,793.612549 
	C1109.257812,794.544312 1124.208740,800.805481 1135.900391,814.822632 
	C1140.276733,819.719604 1142.401733,825.571228 1144.934326,831.147278 
	C1147.052124,835.809937 1143.993408,840.264038 1143.066406,844.672791 
	C1139.144775,863.322144 1135.053101,881.944214 1130.504517,900.454529 
	C1126.714478,915.877808 1123.107910,931.345764 1119.338501,946.773804 
	C1114.299561,967.397339 1109.377319,988.049194 1103.979736,1008.582031 
	C1099.594849,1025.263062 1095.166992,1041.930298 1090.394653,1058.511353 
	C1084.199707,1080.035522 1077.823975,1101.495728 1070.928345,1122.806519 
	C1062.747559,1148.088501 1053.798462,1173.101807 1044.658081,1198.043579 
	C1036.882812,1219.260376 1028.428467,1240.228149 1019.595093,1261.021484 
	C1011.019043,1281.208984 1002.096313,1301.254517 993.040405,1321.237793 
	C983.229980,1342.886108 973.234070,1364.446411 962.230286,1385.513672 
	C948.843872,1411.142334 935.266907,1436.673950 920.500610,1461.547729 
	C917.397095,1466.775513 916.700928,1466.817505 913.735168,1461.829712 
	C911.269714,1457.683228 907.632507,1456.068726 903.164307,1457.031494 
	C895.032593,1458.783691 886.832764,1460.293945 878.836609,1462.612305 
	C873.199097,1464.246582 870.731506,1467.779175 871.955994,1471.825317 
	C873.179382,1475.867554 877.372559,1477.839600 882.624512,1476.681885 
	C892.211731,1474.568481 901.924805,1473.016235 911.765198,1470.292480 
	C912.407349,1470.421387 912.652832,1470.519043 913.164551,1470.908813 
	C914.096863,1472.645630 913.271484,1473.718872 912.590576,1474.881470 
	C904.614563,1488.500488 896.727722,1502.173096 888.023071,1515.349731 
	C886.373047,1517.847290 885.219666,1520.626953 883.460815,1523.078613 
	C881.755310,1525.455811 879.879150,1526.352173 877.859375,1523.837158 
	C874.239624,1519.329712 869.492737,1519.901733 865.052185,1521.249756 
	C857.924011,1523.413574 850.875671,1525.897217 843.881287,1528.504517 
	C841.738708,1529.303101 840.030212,1530.576660 838.807861,1532.363159 
	C835.483337,1537.221924 838.587219,1543.078491 844.619202,1543.490845 
	C849.942444,1543.854736 854.643921,1541.416748 859.568359,1540.049561 
	C862.279053,1539.296997 864.939270,1538.303711 867.655029,1537.534546 
	C868.927368,1537.174072 870.345459,1536.909912 871.295898,1538.264038 
	C872.226257,1539.589722 871.565491,1540.816895 870.851562,1541.965332 
	C867.956909,1546.621948 864.557007,1550.929688 861.398438,1555.401367 
	C859.874084,1557.559570 858.184875,1559.632202 856.647766,1561.800293 
	C855.874451,1562.890991 855.235901,1564.277832 854.010498,1564.741089 
	C843.654968,1568.655640 834.217712,1574.995361 822.955383,1576.517090 
	C801.879639,1579.364624 783.191589,1573.740356 766.296631,1560.427856 
	C766.001099,1560.181396 765.808838,1559.876953 765.629089,1559.867432 
	C763.234131,1558.651367 761.560913,1556.729370 759.344055,1555.027100 
	C759.203186,1554.714966 759.181763,1554.811768 759.229858,1554.800049 
	C756.952026,1553.390137 755.333862,1551.238770 753.338989,1549.036133 
	C753.198364,1548.733765 753.175659,1548.827515 753.222900,1548.817871 
	C752.434326,1548.564941 751.966614,1547.871216 751.313843,1546.996826 
	C751.218689,1546.706177 751.199890,1546.808716 751.250000,1546.794434 
	C748.261108,1543.394287 745.150818,1540.069092 742.267090,1536.101074 
	C739.662720,1532.899536 739.500427,1529.754150 740.254150,1526.065674 
	C747.625427,1489.992310 756.725403,1454.379150 768.172791,1419.376465 
	C770.662537,1411.763428 768.680359,1405.582764 762.155518,1401.075928 
	C758.999512,1398.896240 755.712219,1398.972534 752.195496,1400.430908 
	C727.301331,1410.754883 702.433838,1421.146973 677.444336,1431.236328 
	C642.387512,1445.390259 608.506714,1462.136841 574.127014,1477.782104 
	C570.701050,1479.341187 568.207092,1479.557617 564.560059,1477.584717 
	C558.617493,1474.369873 551.536133,1473.616211 545.506958,1470.265625 
	C524.103699,1458.371216 511.702576,1440.276855 508.278503,1416.063232 
	C507.708221,1412.030518 507.076630,1408.170166 503.772156,1405.318115 
	C500.945190,1402.878296 503.658203,1401.499390 505.019043,1400.150024 
	C515.425720,1389.830444 526.092834,1379.780029 537.229492,1370.251343 
	C581.513611,1332.361572 627.063538,1296.061646 674.229797,1261.816895 
	C686.886230,1252.627686 699.866821,1243.885254 712.687378,1234.921753 
	C714.186401,1233.873657 715.592834,1232.694092 717.078186,1231.625610 
	C720.997375,1228.806030 722.889160,1225.096924 721.307190,1220.372803 
	C719.703857,1215.584717 715.682800,1214.019653 711.034607,1213.986084 
	C701.038086,1213.914185 691.052063,1213.813599 681.062744,1213.209473 
	C668.579773,1212.454346 656.198792,1210.951294 643.814148,1209.291138 
	C638.330994,1208.556030 634.825317,1205.983887 632.206787,1201.218628 
	C626.614258,1191.041626 624.227600,1180.131958 623.716614,1168.661133 
	C622.997986,1152.528320 626.606384,1137.252808 632.652649,1122.441406 
	C633.657471,1119.980103 642.139221,1116.774658 644.331299,1117.979004 
	C645.393066,1118.562378 645.361328,1119.606567 645.329224,1120.578369 
	C644.286133,1152.096924 661.062256,1173.821655 684.497437,1191.891602 
	C684.893311,1192.196777 685.286194,1192.505737 685.901855,1193.095093 
	C686.614746,1193.732666 687.102539,1194.093140 687.827393,1194.642090 
z"/>
<path fill="#90D3FB" opacity="1.000000" stroke="none" 
	d="
M783.448730,1058.595947 
	C776.272766,1058.991821 769.803955,1057.309570 763.442505,1055.438477 
	C758.208069,1053.898804 755.680664,1049.461182 753.829041,1044.656616 
	C752.446594,1041.069214 750.396423,1038.140991 746.332764,1037.347168 
	C739.529358,1036.018311 734.575439,1041.584595 736.367371,1049.362549 
	C737.430298,1053.976196 735.883972,1054.660522 731.899719,1054.847778 
	C717.114624,1055.542969 703.910095,1050.249878 691.717773,1043.072266 
	C659.196899,1023.927429 640.567871,996.205017 641.437683,957.267395 
	C641.587769,950.546509 642.919861,944.058899 644.852234,937.651611 
	C645.424805,935.753113 645.862732,933.766357 646.002502,931.794495 
	C646.320801,927.302429 644.458801,923.966858 640.061279,922.509888 
	C635.872070,921.122009 632.227600,922.546265 630.099976,926.148254 
	C628.049194,929.620361 626.359985,929.623901 623.036011,927.750549 
	C605.871582,918.076843 595.143738,903.118286 588.737061,885.101807 
	C574.372925,844.707886 577.220032,805.493408 599.059631,768.303650 
	C607.609131,753.744934 619.605408,742.767029 636.073242,737.122314 
	C645.487915,733.895325 646.581970,727.032104 639.316040,719.837219 
	C637.814270,718.350098 637.766418,716.649231 637.609558,714.826843 
	C635.713379,692.790588 643.256653,673.822449 657.074463,657.223755 
	C675.433105,635.170166 699.258362,621.964905 727.076599,615.760010 
	C750.026550,610.641052 772.718506,611.221680 794.953247,619.488464 
	C800.370361,621.502563 800.355530,621.634827 796.183472,625.780273 
	C792.861267,629.081299 789.894531,632.682983 787.719910,636.846680 
	C785.173828,641.721924 786.227356,646.399536 790.339539,649.208191 
	C794.269836,651.892700 799.016235,651.386963 802.306030,647.069519 
	C822.468750,620.608154 849.988342,619.544189 879.082825,625.089233 
	C895.306152,628.181152 909.592529,635.665527 920.436646,648.533386 
	C931.187317,661.290161 932.206482,673.396301 924.408813,687.732605 
	C923.252136,689.859253 921.598389,691.427124 919.977661,693.078918 
	C897.548401,715.937622 892.551025,742.912476 901.737793,772.857971 
	C907.124268,790.416138 917.659790,804.563293 932.715210,815.234863 
	C933.746948,815.966248 935.102661,816.500427 934.977356,818.734558 
	C926.451294,818.715881 918.758728,815.980469 911.403015,812.170349 
	C901.517517,807.049866 893.272461,799.834473 885.883667,791.583496 
	C884.776611,790.347229 883.692566,789.056335 882.416931,788.011597 
	C878.900879,785.132141 874.131775,785.033325 870.924744,787.634094 
	C867.431580,790.466797 866.501404,795.210754 868.858398,799.349609 
	C871.187622,803.439636 874.598267,806.673523 877.816101,810.051941 
	C878.678772,810.957703 880.468689,811.672668 879.847046,813.144165 
	C879.087280,814.942627 877.206177,813.968811 875.844727,813.856262 
	C849.752258,811.698059 824.713013,815.676758 800.854492,826.611633 
	C785.414978,833.687866 771.735779,843.324524 759.540588,855.104797 
	C756.321350,858.214539 753.240723,861.327698 749.154968,863.544189 
	C743.698853,866.503906 744.238342,873.865967 750.115662,877.350220 
	C757.858765,881.940674 766.293579,885.184448 774.662537,888.397888 
	C800.334961,898.255310 826.276062,907.373230 853.736023,910.869873 
	C870.166077,912.961975 886.647217,913.391968 902.768250,908.475769 
	C906.733093,907.266724 907.566589,908.170410 907.306885,912.333862 
	C906.225159,929.676086 908.368774,946.273193 919.978638,960.344238 
	C923.090515,964.115906 926.651428,967.442871 930.756470,969.926025 
	C934.608398,972.256042 933.909607,974.092896 931.409485,976.780151 
	C923.124817,985.684998 912.552002,990.293579 901.008484,992.905701 
	C890.158875,995.360657 879.226562,995.432983 868.257019,993.275330 
	C865.411682,992.715698 863.861206,991.644958 863.250732,988.720276 
	C862.192017,983.648987 860.632812,978.688782 857.363342,974.532471 
	C854.166016,970.467896 849.436646,969.529358 845.378296,971.948181 
	C841.490967,974.264954 839.712402,978.864319 841.945251,983.261230 
	C848.119141,995.418335 845.935791,1007.074585 839.719055,1018.112976 
	C827.365845,1040.047363 808.925415,1053.968140 783.448730,1058.595947 
z"/>
<path fill="#D1F2FD" opacity="1.000000" stroke="none" 
	d="
M921.969604,1246.639648 
	C914.140320,1250.511108 905.458435,1250.517456 896.910034,1249.752686 
	C884.739868,1248.663940 873.267456,1244.813232 862.152344,1238.856689 
	C862.276428,1237.407471 862.708557,1235.978271 863.290100,1234.612549 
	C866.060303,1228.106567 864.733459,1222.910034 859.610474,1220.379761 
	C854.861267,1218.033936 849.892883,1220.272217 846.799133,1226.518677 
	C841.441711,1237.335449 833.326233,1245.415405 822.845276,1251.192261 
	C811.614075,1257.382935 799.719971,1260.490967 786.819397,1258.474365 
	C771.684692,1256.108398 764.815125,1244.026611 770.444519,1229.727417 
	C771.981934,1225.822144 774.045227,1222.247070 776.823425,1219.073242 
	C779.752869,1215.726685 781.306641,1212.023315 779.100830,1207.647583 
	C776.948120,1203.377075 773.246704,1202.510620 768.732178,1202.244995 
	C731.351562,1200.045532 698.935486,1187.041992 675.149475,1157.017334 
	C661.365112,1139.617554 660.139282,1118.311523 670.680481,1102.578125 
	C679.174500,1089.900269 691.541931,1082.526978 705.721985,1078.396973 
	C746.528687,1066.512207 784.384583,1074.282959 819.832764,1096.591797 
	C821.658691,1097.740845 823.399719,1099.061646 825.324951,1100.008667 
	C829.831726,1102.225586 834.151367,1101.194946 836.858154,1097.459351 
	C839.477722,1093.844238 839.221802,1089.708862 835.916443,1086.050171 
	C834.592468,1084.584717 832.897278,1083.454590 831.111816,1081.928833 
	C830.540588,1081.112671 830.131287,1080.560669 830.169495,1079.872803 
	C830.436462,1075.070068 837.187988,1066.216309 842.151001,1064.761963 
	C843.472595,1066.218384 844.457336,1067.495117 845.694763,1069.008667 
	C847.600037,1070.285889 849.312988,1071.127075 851.668945,1070.817383 
	C852.336060,1070.669312 852.688782,1070.586670 853.314087,1070.507812 
	C854.480652,1070.630371 854.941162,1069.914551 855.777954,1069.307617 
	C857.230530,1067.904785 858.458191,1066.684326 859.932617,1065.254883 
	C860.597107,1064.506958 861.023804,1063.975098 861.649292,1063.166382 
	C864.962341,1058.026611 869.065063,1054.049316 873.536682,1049.968262 
	C874.538025,1049.493896 875.027405,1048.915161 875.718567,1048.153809 
	C875.883057,1047.925049 875.928650,1047.928467 875.927124,1047.905640 
	C876.473938,1047.465942 876.981873,1047.002930 877.717773,1046.279785 
	C878.724792,1045.362915 879.488281,1044.688843 880.537354,1043.900391 
	C881.428711,1043.459106 881.952515,1043.020386 882.728760,1042.350586 
	C882.985229,1042.124634 883.321533,1041.835693 883.531738,1041.765137 
	C884.530762,1041.547119 884.993164,1040.924561 885.753174,1040.248779 
	C885.950317,1040.049561 886.294617,1039.774658 886.507690,1039.718750 
	C888.445496,1038.837646 889.796997,1037.429321 891.773254,1036.408203 
	C892.367798,1036.040039 892.704468,1035.857544 893.321899,1035.607422 
	C902.229980,1030.288574 911.714233,1027.258667 921.782043,1024.700195 
	C922.570068,1024.475220 922.997803,1024.357300 923.759949,1024.251465 
	C935.588989,1022.448853 947.052856,1022.044800 958.453003,1024.964111 
	C962.616272,1026.030273 966.716675,1027.260864 970.942749,1029.435547 
	C971.711243,1029.722046 972.081848,1029.836304 972.700806,1030.104004 
	C973.510315,1030.656860 974.079651,1031.044067 974.985535,1031.530273 
	C977.703491,1032.462036 979.580566,1034.104614 981.816040,1035.792236 
	C982.532227,1036.519287 983.021545,1036.998413 983.830200,1037.633789 
	C984.109009,1037.832886 984.129578,1037.869019 984.148926,1037.876587 
	C984.533875,1038.563721 985.108398,1039.052490 985.940430,1039.656494 
	C987.416016,1040.959717 988.632996,1042.148560 989.995972,1043.623291 
	C990.530701,1044.460693 990.972900,1044.969971 991.608154,1045.756348 
	C994.102478,1048.353027 995.580322,1051.229614 997.289490,1054.344482 
	C998.926270,1057.398682 999.591919,1060.483765 1001.048950,1063.627930 
	C1001.261597,1064.327026 1001.369873,1064.682129 1001.486023,1065.316650 
	C1001.895081,1067.826294 1002.546082,1069.998535 1003.067200,1072.587402 
	C1003.247925,1073.927246 1003.389282,1074.889893 1003.515991,1076.217773 
	C1004.340820,1080.189209 1004.047791,1083.823486 1003.635803,1087.936279 
	C1003.433044,1089.384766 1003.364014,1090.354370 1003.207764,1091.678467 
	C1003.046936,1094.645386 1001.840576,1097.044556 1001.576599,1100.015869 
	C1001.426208,1100.761108 1001.386597,1101.132324 1001.245605,1101.765869 
	C998.606567,1110.315063 995.425354,1118.314575 990.449951,1125.918457 
	C989.883179,1126.992676 989.484009,1127.735962 988.844971,1128.688721 
	C988.068787,1129.910400 987.252930,1130.712280 986.403687,1131.910156 
	C986.240601,1132.208374 986.060059,1132.624634 985.905518,1132.790771 
	C985.087708,1133.885498 984.282043,1134.694702 983.366211,1135.854858 
	C982.244812,1137.288696 981.314148,1138.439209 980.138306,1139.791748 
	C979.440674,1140.500366 978.986694,1141.005615 978.290039,1141.749268 
	C978.058533,1141.997681 978.055359,1142.049805 978.030029,1142.056396 
	C977.498840,1142.529419 977.007690,1143.010376 976.332397,1143.791260 
	C976.114197,1144.057007 976.092163,1144.092163 976.074463,1144.103027 
	C974.791504,1145.120483 973.721924,1146.337280 972.263062,1147.643066 
	C970.911987,1148.872314 969.816162,1149.868652 968.454529,1151.038696 
	C967.470276,1151.499146 966.979248,1152.074097 966.255615,1152.800171 
	C965.273682,1153.651733 964.478149,1154.293579 963.398071,1155.054199 
	C962.552002,1155.535522 962.037231,1155.962402 961.221436,1156.542847 
	C958.626038,1158.219360 956.303162,1159.703125 953.644775,1161.270630 
	C952.630371,1161.549316 952.079590,1161.969360 951.243286,1162.580688 
	C950.626831,1162.966675 950.286316,1163.144409 949.660767,1163.376221 
	C948.516724,1163.393066 948.049011,1164.070557 947.210449,1164.659424 
	C946.626343,1164.987427 946.271729,1165.146118 945.626953,1165.347534 
	C942.268005,1166.859619 939.071167,1168.102295 936.197876,1170.605225 
	C935.926208,1170.812012 935.930298,1170.929932 935.871338,1170.927979 
	C935.134338,1171.862793 934.304260,1172.668701 933.348328,1173.821777 
	C932.696655,1174.836670 932.253296,1175.575562 931.637329,1176.588867 
	C930.733826,1179.839844 930.510376,1182.764771 932.528687,1185.770386 
	C932.716797,1186.059814 933.062866,1186.353516 933.165405,1186.556152 
	C933.470215,1187.535034 934.083496,1188.006958 934.813965,1188.735352 
	C936.949219,1190.950073 938.420837,1193.263306 939.463623,1196.226562 
	C942.512878,1204.323975 940.843750,1211.214722 935.416504,1217.789429 
	C934.094604,1219.142090 933.027710,1220.166382 931.658081,1221.297852 
	C927.013000,1224.623413 921.980225,1226.058105 916.401855,1227.101562 
	C912.646606,1227.201538 909.264893,1227.248901 905.429138,1227.211792 
	C901.020020,1226.261597 896.947449,1225.790283 893.009094,1223.534546 
	C892.277588,1223.301147 891.904053,1223.200928 891.285278,1222.943604 
	C890.405457,1222.359131 889.814209,1221.870605 888.878296,1221.471191 
	C888.222778,1221.430664 887.854248,1221.382812 887.227051,1221.228638 
	C883.822510,1220.728760 880.863464,1221.033325 878.189941,1223.590088 
	C877.613464,1224.328735 877.303406,1224.877563 876.770386,1225.651123 
	C876.352234,1226.388184 876.081970,1226.869629 875.839844,1227.657959 
	C875.766602,1228.716797 875.771729,1229.512817 875.737793,1230.704834 
	C876.085999,1233.181030 877.332092,1234.807251 878.781921,1236.687256 
	C879.034363,1236.915527 879.062439,1236.935913 879.075195,1236.947754 
	C881.872070,1239.532593 885.554993,1240.515503 889.068237,1242.458984 
	C890.061401,1242.646240 890.711060,1242.780884 891.664978,1243.049072 
	C893.016174,1244.200928 894.529297,1243.811646 896.034180,1244.505615 
	C896.734619,1244.625610 897.112305,1244.661865 897.758301,1244.795654 
	C904.000549,1246.797241 910.156128,1245.709839 916.227844,1246.010376 
	C918.027649,1246.099609 919.864136,1245.625000 921.969604,1246.639648 
z"/>
<path fill="#F9E6DF" opacity="1.000000" stroke="none" 
	d="
M961.455200,936.066711 
	C957.824524,939.694519 956.709351,944.530762 953.888184,948.736328 
	C948.422607,946.335632 943.573486,946.019043 939.721558,951.590210 
	C937.976379,954.114258 936.608215,952.173828 935.346313,950.987000 
	C927.702393,943.797607 925.139709,934.386475 924.259766,924.433533 
	C923.704041,918.147583 924.735107,911.922302 925.517212,905.630371 
	C926.326904,899.116638 928.467468,894.462097 933.157898,890.088501 
	C936.322021,887.138000 937.622437,882.737549 936.471252,878.110413 
	C935.578491,874.521790 933.284180,872.269348 929.752808,871.474731 
	C926.126404,870.658813 922.869690,871.971191 921.004944,874.977112 
	C913.796814,886.596069 902.096436,890.188965 889.853699,892.442322 
	C870.067139,896.084290 850.683289,892.489380 831.489502,887.965881 
	C813.007202,883.610168 794.899963,877.947449 777.163330,871.133362 
	C771.810608,869.076904 771.700317,868.700439 775.963074,864.957153 
	C810.622131,834.521606 850.542480,825.674255 895.111938,835.973633 
	C899.508789,836.989685 903.715637,837.292542 907.098572,833.471313 
	C909.357849,830.919189 911.714722,832.698608 913.961426,833.458740 
	C927.810303,838.144348 941.581177,839.151489 955.348694,833.072632 
	C959.885681,831.069397 963.552429,828.059021 966.762939,824.385315 
	C971.799500,818.621948 970.325195,811.723145 963.039917,809.270081 
	C953.634277,806.103149 944.837158,802.146484 937.291687,795.485046 
	C915.254456,776.029907 909.430725,741.121643 924.339417,716.596558 
	C927.842468,710.833923 932.516357,706.165710 937.847473,702.051331 
	C940.378784,700.097717 941.826172,700.650757 943.410950,703.108154 
	C948.367798,710.794312 953.625549,718.280640 957.785828,726.471436 
	C959.213196,729.281677 959.273376,731.673645 957.989624,734.508179 
	C955.516663,739.967834 953.589233,745.645874 952.114624,751.468262 
	C951.536987,753.749146 951.112671,756.063843 951.495056,758.392761 
	C952.210938,762.753967 954.455017,766.004272 959.149231,766.292969 
	C963.571594,766.565002 966.123169,763.968140 967.413757,759.787903 
	C968.074219,757.648621 967.690674,755.144104 969.459595,753.265381 
	C971.323425,754.476501 971.891846,756.466797 972.880066,758.153992 
	C980.582336,771.304565 991.156494,781.344055 1005.003235,787.845703 
	C1019.694580,794.743896 1023.525024,803.880066 1022.504944,821.862488 
	C1022.348511,824.620178 1020.804077,826.868835 1019.402649,829.137573 
	C999.815125,860.847412 980.578613,892.754700 964.153198,926.266602 
	C962.662231,929.308411 961.300598,932.272278 961.455200,936.066711 
z"/>
<path fill="#F9E6DF" opacity="1.000000" stroke="none" 
	d="
M1120.406616,780.511536 
	C1105.464233,774.615417 1090.355103,773.260193 1074.880493,774.973877 
	C1072.336304,775.255554 1069.625366,775.745544 1071.781860,771.654968 
	C1091.201782,734.817932 1111.855713,698.759338 1138.413086,666.446533 
	C1144.556396,658.971924 1151.429565,652.197754 1159.124512,646.330627 
	C1161.530273,644.496277 1164.240356,641.433533 1167.428345,643.085693 
	C1170.319458,644.583984 1169.600586,648.412292 1169.697510,651.334900 
	C1170.134277,664.507812 1169.353027,677.635193 1168.180786,690.757080 
	C1164.931763,727.124207 1158.826294,763.056702 1151.965820,798.878845 
	C1151.753052,799.990234 1151.881836,801.326416 1150.424927,801.713318 
	C1149.185547,802.042603 1148.722900,800.982788 1148.092896,800.243591 
	C1140.603271,791.454895 1131.266602,785.238647 1120.406616,780.511536 
z"/>
<path fill="#F9E6DF" opacity="1.000000" stroke="none" 
	d="
M539.957520,1175.092041 
	C525.510925,1167.441650 511.294586,1160.112549 499.837799,1148.604492 
	C497.006042,1145.760254 494.356934,1142.794556 492.681366,1139.094238 
	C490.128693,1133.457153 491.473022,1130.588745 497.486206,1128.666870 
	C502.758301,1126.981934 508.214081,1126.332520 513.679443,1125.759644 
	C522.641907,1124.819946 531.637268,1124.749878 540.635864,1124.890869 
	C562.793884,1125.237793 584.946716,1125.257812 607.011230,1122.839355 
	C611.237000,1122.375977 612.175903,1123.072632 610.750793,1127.452148 
	C603.131409,1150.868286 601.922607,1174.434937 610.066162,1198.047485 
	C610.384460,1198.970337 610.974365,1199.994141 610.109802,1200.840454 
	C609.049072,1201.878662 607.916321,1200.939087 606.859924,1200.653198 
	C583.821106,1194.416260 561.621765,1185.975464 539.957520,1175.092041 
z"/>
<path fill="#F9E6DF" opacity="1.000000" stroke="none" 
	d="
M526.894592,1497.950317 
	C504.828308,1506.526123 483.116760,1514.979858 459.880920,1518.343262 
	C451.806519,1519.511963 443.627197,1520.324463 435.621918,1517.982422 
	C428.669830,1515.948364 426.391541,1511.942993 427.635223,1504.765747 
	C429.430664,1494.404053 434.197418,1485.284546 439.742218,1476.545776 
	C452.535889,1456.382690 467.990387,1438.332764 484.279816,1420.964966 
	C485.366943,1419.805908 486.350189,1417.672607 488.021973,1418.093628 
	C490.077820,1418.611328 489.671387,1421.122925 489.999084,1422.797729 
	C495.343323,1450.112305 509.811554,1471.019653 533.703369,1485.361206 
	C533.846008,1485.446655 533.986877,1485.536865 534.119507,1485.636841 
	C536.811646,1487.668823 542.335815,1487.755493 542.097168,1491.074341 
	C541.922058,1493.507812 536.328491,1493.859375 533.268372,1495.408447 
	C531.348572,1496.380005 529.269836,1497.037476 526.894592,1497.950317 
z"/>
<path fill="#F9E6DF" opacity="1.000000" stroke="none" 
	d="
M782.805176,1638.828125 
	C773.657043,1645.565796 764.707947,1651.945679 754.094116,1655.417114 
	C744.981018,1658.397705 740.156250,1656.185059 736.090027,1647.352417 
	C732.531799,1639.623413 731.600159,1631.288696 731.073975,1623.018799 
	C729.735657,1601.984985 731.790955,1581.085083 734.564453,1560.251953 
	C734.666626,1559.484253 734.928772,1558.236694 735.376160,1558.106812 
	C736.934387,1557.654053 737.586243,1559.102539 738.487976,1560.054688 
	C750.530884,1572.772705 764.176819,1583.199585 780.673950,1589.564941 
	C793.450378,1594.494629 806.553894,1596.926147 820.288757,1595.231934 
	C822.703430,1594.934082 825.185791,1594.289185 828.568359,1595.308716 
	C814.978638,1611.859497 799.622498,1625.838135 782.805176,1638.828125 
z"/>
<path fill="#2D2C33" opacity="1.000000" stroke="none" 
	d="
M766.058228,1560.510498 
	C774.816528,1565.428955 783.367615,1571.073364 793.473328,1573.885620 
	C810.634277,1578.661621 826.530273,1575.891235 842.930237,1569.289185 
	C856.819031,1563.698120 862.392151,1551.651611 870.437012,1541.256348 
	C871.044312,1540.471680 871.813843,1539.579224 871.215332,1538.567017 
	C870.375183,1537.145996 869.125183,1538.080933 868.107910,1538.374390 
	C862.368774,1540.029907 856.652832,1541.765625 850.920776,1543.446167 
	C849.490112,1543.865601 848.045227,1544.394287 846.579102,1544.504883 
	C842.129517,1544.840332 838.661499,1543.101807 837.172791,1538.772217 
	C835.721252,1534.550659 837.397339,1530.814453 841.175293,1529.058472 
	C850.367737,1524.785767 860.023682,1521.640625 869.944458,1519.514160 
	C873.267090,1518.802124 876.197998,1520.477783 878.130615,1523.257080 
	C880.054688,1526.023926 881.345459,1525.231934 882.755249,1522.891968 
	C892.957947,1505.956909 903.180542,1489.033813 913.396118,1471.753540 
	C913.406982,1471.193481 913.418579,1470.986694 913.119995,1470.793213 
	C902.533813,1474.863281 891.557800,1476.011597 880.879211,1478.364868 
	C875.716431,1479.502686 871.038574,1476.343628 869.984558,1471.874146 
	C868.914062,1467.334717 871.750977,1462.870972 877.125549,1461.511597 
	C885.666504,1459.351685 894.255798,1457.338501 902.899170,1455.643188 
	C909.150452,1454.417114 913.270142,1456.693604 915.220703,1461.524414 
	C915.692444,1462.692749 915.207825,1464.661865 916.761169,1464.903442 
	C918.620667,1465.192505 918.852539,1463.048950 919.533813,1461.886841 
	C933.003235,1438.913696 945.815002,1415.570068 958.011658,1391.902466 
	C989.445618,1330.905396 1017.037231,1268.166138 1041.546387,1204.104004 
	C1061.595459,1151.699463 1078.930908,1098.355591 1093.724121,1044.219971 
	C1103.682739,1007.776428 1113.027222,971.169250 1121.552612,934.358582 
	C1128.952393,902.408325 1136.340942,870.455444 1143.787354,838.516113 
	C1144.644043,834.841797 1144.770142,831.592224 1142.733032,828.016724 
	C1140.441895,823.995728 1138.729126,819.618042 1136.254639,815.289490 
	C1140.148804,816.177429 1140.280029,820.303589 1142.331543,822.967773 
	C1147.466309,829.635864 1146.897217,836.896973 1144.688843,844.383728 
	C1140.987183,856.933228 1139.025635,869.882996 1135.980103,882.583435 
	C1133.522339,892.832947 1130.464966,902.967896 1128.598999,913.320374 
	C1127.261597,920.740112 1124.909424,927.877075 1123.656372,935.337097 
	C1122.071777,944.771790 1118.578003,953.870911 1116.229736,963.195801 
	C1113.011841,975.973511 1110.259033,988.868896 1107.004395,1001.636780 
	C1103.988159,1013.468872 1100.422485,1025.183105 1097.491821,1037.010742 
	C1094.819336,1047.796021 1091.689697,1058.454468 1088.769043,1069.150269 
	C1084.119141,1086.179077 1078.490234,1102.945557 1073.074707,1119.758301 
	C1068.159790,1135.017212 1063.192017,1150.265747 1057.850952,1165.378662 
	C1052.617798,1180.186279 1046.990723,1194.858276 1041.338867,1209.513550 
	C1036.067017,1223.183228 1030.662842,1236.805420 1025.081909,1250.351562 
	C1019.533447,1263.818848 1013.841370,1277.231445 1007.944641,1290.549438 
	C999.125305,1310.468628 990.415833,1330.448120 981.035156,1350.103882 
	C967.713806,1378.016602 953.173279,1405.303955 938.252380,1432.411865 
	C923.854736,1458.569336 908.518250,1484.138550 892.936096,1509.580444 
	C889.392761,1515.365845 885.722046,1521.073364 882.094116,1526.806641 
	C880.625183,1529.128174 878.918823,1530.012695 877.260254,1527.078003 
	C874.567200,1522.312622 870.737732,1520.459961 865.266296,1522.228271 
	C857.920227,1524.602539 850.704285,1527.382446 843.448853,1530.032715 
	C839.440979,1531.496826 838.372192,1534.636963 839.157471,1538.469727 
	C839.922424,1542.203735 842.989014,1542.007935 845.888184,1542.010620 
	C852.790649,1542.016968 858.947510,1539.037476 865.291809,1536.974243 
	C867.744385,1536.176636 870.560364,1536.239624 872.721130,1534.375854 
	C873.434692,1533.760254 874.727356,1533.860107 875.441772,1534.755737 
	C876.173462,1535.673096 875.732849,1536.729004 875.174805,1537.545288 
	C868.813171,1546.850342 863.251099,1556.985596 855.149597,1564.690796 
	C850.277344,1569.324585 842.559204,1570.946533 836.152893,1573.991211 
	C824.893494,1579.342407 812.679626,1579.266602 801.081482,1577.622314 
	C788.100037,1575.782227 775.764648,1570.604736 766.058228,1560.510498 
z"/>
<path fill="#8E7FED" opacity="1.000000" stroke="none" 
	d="
M842.583130,1064.526367 
	C836.506958,1068.754639 833.358032,1074.582642 830.952881,1081.348389 
	C824.202332,1077.815918 817.551941,1073.946167 810.237427,1069.689941 
	C819.182678,1064.720703 827.130066,1059.919067 834.087402,1053.676880 
	C846.167236,1042.838623 855.786682,1030.328735 860.894897,1014.691284 
	C861.554321,1012.672546 862.179321,1010.423279 865.271362,1011.103821 
	C874.949890,1013.233948 884.729736,1013.358582 894.555115,1012.434937 
	C895.177917,1012.376404 895.916992,1012.354309 896.273804,1013.344116 
	C890.807007,1016.325256 885.191101,1019.110657 879.852783,1022.353088 
	C866.332153,1030.565430 855.022644,1041.241333 845.529907,1053.880127 
	C843.221863,1056.953125 841.981689,1060.241089 842.583130,1064.526367 
z"/>
<path fill="#C7C7C7" opacity="1.000000" stroke="none" 
	d="
M1069.207642,546.814575 
	C1090.813721,577.526245 1112.245728,607.935547 1133.684448,638.340149 
	C1134.729126,639.821960 1136.056274,641.132935 1134.999023,643.244141 
	C1132.937866,647.359924 1130.416748,647.619324 1127.850220,643.823364 
	C1107.199707,613.279663 1086.562866,582.726685 1065.933105,552.168945 
	C1065.284668,551.208374 1064.587036,550.224365 1064.214233,549.146912 
	C1063.548950,547.224670 1064.261963,545.062439 1065.604858,544.147827 
	C1067.701782,542.719666 1067.856812,545.688232 1069.207642,546.814575 
z"/>
<path fill="#CDCDCD" opacity="1.000000" stroke="none" 
	d="
M1193.337891,740.697998 
	C1191.197998,737.500977 1189.557007,734.332642 1187.244873,731.769958 
	C1182.699097,726.731689 1182.687988,721.031250 1183.898804,714.972290 
	C1184.053833,714.196533 1183.829590,713.183105 1184.842896,712.886169 
	C1186.029175,712.538574 1186.581299,713.406250 1187.165405,714.272156 
	C1200.246216,733.663452 1214.827637,752.028870 1226.765015,772.203674 
	C1227.387817,773.256470 1228.039551,774.265198 1227.073975,775.349792 
	C1226.300781,776.218140 1225.221313,775.904053 1224.271606,775.635681 
	C1219.339111,774.242065 1215.028687,771.785156 1212.030640,767.558044 
	C1205.789795,758.758789 1199.690674,749.858887 1193.337891,740.697998 
z"/>
<path fill="#9AA3D0" opacity="1.000000" stroke="none" 
	d="
M809.695557,1275.802490 
	C806.894165,1279.234497 802.482849,1279.397827 798.588867,1279.748657 
	C787.976562,1280.704956 777.460083,1280.292603 768.006104,1274.152466 
	C762.758362,1270.744141 758.243164,1266.828003 755.977478,1260.439697 
	C767.148071,1272.798584 781.360535,1278.103027 798.057922,1277.116577 
	C801.849426,1276.892578 805.611450,1276.169678 809.695557,1275.802490 
z"/>
<path fill="#9AA3D0" opacity="1.000000" stroke="none" 
	d="
M971.215515,1029.288452 
	C965.315491,1028.693848 959.884399,1025.730713 953.801941,1024.822266 
	C944.058960,1023.367004 934.383972,1024.039185 924.384460,1024.495483 
	C936.448120,1020.461426 948.738586,1021.801270 960.943542,1024.925903 
	C964.455688,1025.825073 968.026611,1026.827393 971.215515,1029.288452 
z"/>
<path fill="#9AA3D0" opacity="1.000000" stroke="none" 
	d="
M922.530273,1246.957886 
	C916.239868,1246.929932 910.166626,1246.927490 904.093628,1246.896484 
	C902.118164,1246.886475 900.134460,1246.837036 898.248169,1245.207764 
	C903.118103,1245.097168 908.211426,1245.502563 913.300232,1245.452271 
	C919.127502,1245.394409 924.780151,1243.979736 930.777100,1242.497559 
	C930.721375,1244.380615 929.095459,1244.910278 927.419250,1245.826904 
	C926.195618,1245.406006 925.242126,1245.222412 924.112000,1246.185913 
	C923.547852,1246.623169 923.147705,1246.797852 922.530273,1246.957886 
z"/>
<path fill="#9AA3D0" opacity="1.000000" stroke="none" 
	d="
M921.769043,1024.446045 
	C917.748352,1027.737305 912.167908,1027.604370 907.453613,1029.943726 
	C903.170349,1032.069092 898.705994,1033.829468 893.962036,1035.645264 
	C899.363953,1030.434326 906.708008,1028.692993 913.677002,1026.197876 
	C916.158447,1025.309448 918.817627,1024.917603 921.769043,1024.446045 
z"/>
<path fill="#9AA3D0" opacity="1.000000" stroke="none" 
	d="
M990.608276,1126.168701 
	C992.834106,1120.417725 995.240112,1114.515503 998.014282,1108.791626 
	C999.026489,1106.703369 998.734619,1104.145020 1000.841187,1102.222412 
	C999.917358,1110.971558 995.631714,1118.617065 990.608276,1126.168701 
z"/>
<path fill="#9AA3D0" opacity="1.000000" stroke="none" 
	d="
M935.486328,1218.038086 
	C935.314819,1215.150269 938.030884,1213.521484 938.902771,1210.893433 
	C940.391296,1206.406494 940.172058,1201.930786 939.369873,1196.993652 
	C943.411865,1203.134644 942.038147,1211.066650 935.486328,1218.038086 
z"/>
<path fill="#9AA3D0" opacity="1.000000" stroke="none" 
	d="
M751.322388,1249.513916 
	C747.669006,1243.197388 748.635559,1236.353760 750.795288,1229.295654 
	C750.658875,1235.794800 749.546692,1242.492798 751.322388,1249.513916 
z"/>
<path fill="#9AA3D0" opacity="1.000000" stroke="none" 
	d="
M916.306030,1227.339111 
	C920.614563,1224.488037 926.192017,1224.265625 930.992432,1221.318726 
	C927.342102,1225.642822 922.072632,1226.848267 916.306030,1227.339111 
z"/>
<path fill="#2D2C33" opacity="1.000000" stroke="none" 
	d="
M742.087646,1536.180054 
	C745.540466,1538.856201 748.403992,1542.428833 751.217896,1546.448730 
	C746.886902,1544.578003 744.172180,1540.850830 742.087646,1536.180054 
z"/>
<path fill="#9AA3D0" opacity="1.000000" stroke="none" 
	d="
M892.803589,1223.709473 
	C896.732117,1223.982422 900.668823,1225.107178 904.747925,1226.839355 
	C900.521545,1227.818970 896.747253,1225.885498 892.803589,1223.709473 
z"/>
<path fill="#9AA3D0" opacity="1.000000" stroke="none" 
	d="
M1003.771240,1088.156982 
	C1002.519897,1084.810425 1003.055054,1081.156738 1003.325806,1077.050049 
	C1005.414368,1080.272339 1004.556396,1084.093628 1003.771240,1088.156982 
z"/>
<path fill="#9AA3D0" opacity="1.000000" stroke="none" 
	d="
M889.270996,1242.206543 
	C885.263916,1242.407104 882.034790,1240.356812 879.101929,1237.304688 
	C882.435364,1238.606812 885.782776,1240.254028 889.270996,1242.206543 
z"/>
<path fill="#9AA3D0" opacity="1.000000" stroke="none" 
	d="
M936.272949,1170.795044 
	C937.471863,1166.856445 941.392273,1166.564575 944.972168,1165.287598 
	C943.000977,1168.108276 939.142639,1168.362793 936.272949,1170.795044 
z"/>
<path fill="#9AA3D0" opacity="1.000000" stroke="none" 
	d="
M878.290894,1223.753418 
	C879.724182,1219.882690 882.949890,1219.755981 886.742676,1220.827393 
	C884.123657,1221.751953 881.037415,1221.611328 878.290894,1223.753418 
z"/>
<path fill="#9AA3D0" opacity="1.000000" stroke="none" 
	d="
M932.719116,1185.650879 
	C929.123535,1183.723145 929.307373,1180.574951 931.133179,1177.004272 
	C931.902466,1179.653320 931.202087,1182.614014 932.719116,1185.650879 
z"/>
<path fill="#9AA3D0" opacity="1.000000" stroke="none" 
	d="
M1001.300537,1063.711914 
	C998.279114,1061.844727 998.551758,1058.252563 997.276062,1055.053955 
	C999.907837,1057.058960 1000.413696,1060.377930 1001.300537,1063.711914 
z"/>
<path fill="#9AA3D0" opacity="1.000000" stroke="none" 
	d="
M1001.732788,1100.177734 
	C1000.530396,1097.587769 1001.399536,1095.031494 1002.829468,1092.272461 
	C1004.018311,1094.856812 1002.926453,1097.399536 1001.732788,1100.177734 
z"/>
<path fill="#2D2C33" opacity="1.000000" stroke="none" 
	d="
M753.175781,1549.099121 
	C755.669434,1549.985107 757.178833,1552.277466 759.173828,1554.472656 
	C755.882996,1554.570801 754.323181,1552.241943 753.175781,1549.099121 
z"/>
<path fill="#2D2C33" opacity="1.000000" stroke="none" 
	d="
M759.197144,1555.077393 
	C761.598083,1555.683350 763.411133,1557.426392 765.320679,1559.535156 
	C762.317383,1559.866577 760.476929,1558.045898 759.197144,1555.077393 
z"/>
<path fill="#9AA3D0" opacity="1.000000" stroke="none" 
	d="
M750.198425,1219.415894 
	C748.026123,1220.145752 745.685303,1220.192505 743.385986,1218.295898 
	C745.569336,1217.607178 747.762878,1218.404297 750.198425,1219.415894 
z"/>
<path fill="#9AA3D0" opacity="1.000000" stroke="none" 
	d="
M1003.280884,1072.695435 
	C1001.336487,1071.095825 1001.073364,1068.788086 1001.339844,1065.983521 
	C1003.344299,1067.529175 1003.305237,1070.004883 1003.280884,1072.695435 
z"/>
<path fill="#9AA3D0" opacity="1.000000" stroke="none" 
	d="
M878.979797,1236.576172 
	C876.409485,1236.093872 875.213379,1234.266357 875.481445,1231.330933 
	C876.774170,1232.812988 877.849731,1234.525024 878.979797,1236.576172 
z"/>
<path fill="#9AA3D0" opacity="1.000000" stroke="none" 
	d="
M851.702209,1070.553711 
	C849.692932,1072.668579 847.860840,1071.275391 845.984985,1069.585938 
	C847.771973,1069.615356 849.596497,1069.985352 851.702209,1070.553711 
z"/>
<path fill="#9AA3D0" opacity="1.000000" stroke="none" 
	d="
M891.697021,1036.192627 
	C891.306458,1038.472046 889.288086,1039.064087 887.063782,1039.747314 
	C887.617493,1037.633179 889.700317,1037.176636 891.697021,1036.192627 
z"/>
<path fill="#9AA3D0" opacity="1.000000" stroke="none" 
	d="
M972.331299,1147.861572 
	C972.194458,1145.776123 973.705383,1144.850098 975.719116,1144.092041 
	C975.638306,1146.010254 973.991943,1146.787720 972.331299,1147.861572 
z"/>
<path fill="#9AA3D0" opacity="1.000000" stroke="none" 
	d="
M896.158630,1244.307861 
	C894.834351,1245.102173 893.371399,1245.250488 892.061401,1243.541992 
	C893.453979,1242.733398 894.702209,1243.402954 896.158630,1244.307861 
z"/>
<path fill="#9AA3D0" opacity="1.000000" stroke="none" 
	d="
M695.837463,1199.604492 
	C694.421265,1199.789429 693.128540,1199.292725 692.177429,1197.724365 
	C693.606384,1197.530151 694.739014,1198.314453 695.837463,1199.604492 
z"/>
<path fill="#9AA3D0" opacity="1.000000" stroke="none" 
	d="
M933.453552,1174.037964 
	C932.845886,1172.440430 933.903503,1171.651489 935.478027,1170.952881 
	C935.856750,1172.429810 934.696411,1173.126587 933.453552,1174.037964 
z"/>
<path fill="#9AA3D0" opacity="1.000000" stroke="none" 
	d="
M983.492249,1136.087769 
	C982.917236,1134.544434 983.892395,1133.709717 985.423950,1132.986572 
	C985.953735,1134.519653 984.640564,1135.126709 983.492249,1136.087769 
z"/>
<path fill="#9AA3D0" opacity="1.000000" stroke="none" 
	d="
M986.557861,1132.157715 
	C985.900146,1130.645996 986.892029,1129.801025 988.286438,1128.949829 
	C988.756226,1130.360352 987.829407,1131.241089 986.557861,1132.157715 
z"/>
<path fill="#9AA3D0" opacity="1.000000" stroke="none" 
	d="
M815.589233,1274.217529 
	C815.554749,1275.927856 814.377808,1275.959229 812.726929,1275.693237 
	C813.162292,1274.776855 813.989258,1274.000854 815.589233,1274.217529 
z"/>
<path fill="#9AA3D0" opacity="1.000000" stroke="none" 
	d="
M740.208679,1217.415771 
	C739.324341,1217.906250 738.228577,1218.188965 737.219116,1216.872559 
	C738.210144,1216.099243 739.105103,1216.643921 740.208679,1217.415771 
z"/>
<path fill="#9AA3D0" opacity="1.000000" stroke="none" 
	d="
M711.029663,1207.539062 
	C710.394897,1207.912354 709.736633,1207.823242 709.190186,1206.916992 
	C709.900208,1206.336426 710.426758,1206.784668 711.029663,1207.539062 
z"/>
<path fill="#9AA3D0" opacity="1.000000" stroke="none" 
	d="
M751.859985,1226.611816 
	C751.079895,1226.206665 751.172852,1225.698730 751.902527,1225.149414 
	C752.070190,1225.545288 752.070435,1226.008789 751.859985,1226.611816 
z"/>
<path fill="#9AA3D0" opacity="1.000000" stroke="none" 
	d="
M876.026245,1227.762207 
	C874.814880,1227.107910 875.309021,1226.489014 876.290405,1225.888428 
	C876.461914,1226.451660 876.376404,1227.027710 876.026245,1227.762207 
z"/>
<path fill="#2D2C33" opacity="1.000000" stroke="none" 
	d="
M751.206970,1547.063232 
	C751.847717,1547.207397 752.476807,1547.708496 753.187988,1548.508789 
	C752.229736,1548.866943 751.385620,1548.632324 751.206970,1547.063232 
z"/>
<path fill="#9AA3D0" opacity="1.000000" stroke="none" 
	d="
M754.723145,1257.681152 
	C753.747070,1257.771973 753.190186,1257.217896 753.252808,1255.853516 
	C753.778687,1256.143311 754.254578,1256.763428 754.723145,1257.681152 
z"/>
<path fill="#9AA3D0" opacity="1.000000" stroke="none" 
	d="
M820.648499,1272.576416 
	C820.645691,1273.509033 820.043213,1273.838623 818.914795,1273.745117 
	C819.216980,1273.283813 819.803833,1272.884521 820.648499,1272.576416 
z"/>
<path fill="#9AA3D0" opacity="1.000000" stroke="none" 
	d="
M966.375122,1153.001709 
	C966.008850,1151.959961 966.542969,1151.376709 967.859497,1151.180908 
	C967.686096,1151.806030 967.183472,1152.399658 966.375122,1153.001709 
z"/>
<path fill="#9AA3D0" opacity="1.000000" stroke="none" 
	d="
M984.070923,1037.525391 
	C983.104553,1038.019409 982.469604,1037.564575 982.072693,1036.347168 
	C983.031006,1035.900269 983.551514,1036.526611 984.070923,1037.525391 
z"/>
<path fill="#9AA3D0" opacity="1.000000" stroke="none" 
	d="
M986.157104,1039.464233 
	C985.155823,1039.972656 984.490906,1039.538452 984.160767,1038.219116 
	C985.138550,1037.817505 985.634766,1038.475586 986.157104,1039.464233 
z"/>
<path fill="#9AA3D0" opacity="1.000000" stroke="none" 
	d="
M885.649658,1040.036499 
	C885.953308,1041.099976 885.408020,1041.668213 884.066772,1041.758301 
	C884.277649,1041.137573 884.813354,1040.580566 885.649658,1040.036499 
z"/>
<path fill="#9AA3D0" opacity="1.000000" stroke="none" 
	d="
M882.686890,1042.102051 
	C882.998962,1043.164551 882.407593,1043.686890 881.142273,1043.845947 
	C881.344788,1043.217041 881.866638,1042.648315 882.686890,1042.102051 
z"/>
<path fill="#9AA3D0" opacity="1.000000" stroke="none" 
	d="
M991.848389,1045.709839 
	C990.833862,1045.999146 990.327820,1045.416870 990.110718,1044.220703 
	C991.133179,1043.926758 991.540405,1044.622681 991.848389,1045.709839 
z"/>
<path fill="#9AA3D0" opacity="1.000000" stroke="none" 
	d="
M877.660767,1046.065674 
	C878.036682,1047.060669 877.530396,1047.657104 876.250488,1047.903320 
	C875.972656,1046.940796 876.703430,1046.547241 877.660767,1046.065674 
z"/>
<path fill="#9AA3D0" opacity="1.000000" stroke="none" 
	d="
M875.576782,1047.945312 
	C875.994751,1048.988281 875.476990,1049.592407 874.148376,1049.815796 
	C873.873230,1048.836060 874.597107,1048.421021 875.576782,1047.945312 
z"/>
<path fill="#9AA3D0" opacity="1.000000" stroke="none" 
	d="
M861.533936,1062.920410 
	C862.062744,1063.862427 861.579773,1064.485229 860.491699,1065.003418 
	C859.995117,1064.083496 860.502075,1063.465210 861.533936,1062.920410 
z"/>
<path fill="#9AA3D0" opacity="1.000000" stroke="none" 
	d="
M855.701050,1069.080200 
	C855.967285,1070.270142 855.303650,1070.735352 853.909851,1070.635986 
	C854.190796,1070.019531 854.795044,1069.527466 855.701050,1069.080200 
z"/>
<path fill="#9AA3D0" opacity="1.000000" stroke="none" 
	d="
M975.213867,1031.352783 
	C974.339844,1032.063110 973.641602,1031.673218 973.011230,1030.577271 
	C973.890137,1029.932129 974.514221,1030.468140 975.213867,1031.352783 
z"/>
<path fill="#9AA3D0" opacity="1.000000" stroke="none" 
	d="
M978.361572,1141.959961 
	C977.909607,1141.005493 978.379761,1140.387451 979.574951,1140.004395 
	C979.970703,1140.946899 979.351929,1141.456421 978.361572,1141.959961 
z"/>
<path fill="#9AA3D0" opacity="1.000000" stroke="none" 
	d="
M976.424561,1144.034668 
	C975.978638,1143.050293 976.454712,1142.427368 977.681885,1142.067993 
	C978.074524,1143.033936 977.458252,1143.557861 976.424561,1144.034668 
z"/>
<path fill="#9AA3D0" opacity="1.000000" stroke="none" 
	d="
M888.719543,1221.758545 
	C889.551880,1221.029053 890.333252,1221.233643 890.984131,1222.452515 
	C890.120422,1223.090820 889.486816,1222.556885 888.719543,1221.758545 
z"/>
<path fill="#9AA3D0" opacity="1.000000" stroke="none" 
	d="
M961.243774,1156.760498 
	C960.939880,1155.695557 961.585388,1155.257446 962.802307,1155.115723 
	C962.588623,1155.710449 962.063599,1156.247925 961.243774,1156.760498 
z"/>
<path fill="#9AA3D0" opacity="1.000000" stroke="none" 
	d="
M951.266663,1162.838013 
	C951.004395,1161.690918 951.667603,1161.250854 952.989868,1161.260986 
	C952.728088,1161.865234 952.147034,1162.376099 951.266663,1162.838013 
z"/>
<path fill="#9AA3D0" opacity="1.000000" stroke="none" 
	d="
M947.284180,1164.886963 
	C947.045837,1163.726318 947.701843,1163.266602 949.055054,1163.323364 
	C949.109436,1164.324585 948.395752,1164.690796 947.284180,1164.886963 
z"/>
<path fill="#9AA3D0" opacity="1.000000" stroke="none" 
	d="
M935.019958,1188.613770 
	C933.958008,1188.983521 933.370483,1188.444092 933.218506,1187.091064 
	C933.848145,1187.275757 934.428406,1187.792725 935.019958,1188.613770 
z"/>
<path fill="#9AA3D0" opacity="1.000000" stroke="none" 
	d="
M687.987061,1194.562256 
	C687.283508,1194.881348 686.602051,1194.712524 686.171631,1193.647949 
	C686.713379,1193.689819 687.303589,1194.002441 687.987061,1194.562256 
z"/>
<path fill="#9AA3D0" opacity="1.000000" stroke="none" 
	d="
M702.923950,1203.604492 
	C702.285461,1203.936768 701.663025,1203.810669 701.177002,1202.923096 
	C701.889160,1202.371094 702.385376,1202.828857 702.923950,1203.604492 
z"/>
<path fill="#9AA3D0" opacity="1.000000" stroke="none" 
	d="
M706.925537,1205.605957 
	C706.421021,1205.633057 705.841248,1205.413208 705.177551,1204.967651 
	C705.873352,1204.395142 706.374390,1204.841064 706.925537,1205.605957 
z"/>
<path fill="#9AA3D0" opacity="1.000000" stroke="none" 
	d="
M720.267883,1211.405640 
	C719.582581,1211.860840 718.817322,1211.848022 718.197876,1210.757446 
	C718.958069,1210.199463 719.553589,1210.643677 720.267883,1211.405640 
z"/>
<path fill="#9AA3D0" opacity="1.000000" stroke="none" 
	d="
M726.216003,1213.443481 
	C725.600037,1213.874390 724.877625,1213.881348 724.206787,1212.953369 
	C724.908936,1212.278076 725.484802,1212.753662 726.216003,1213.443481 
z"/>
<path fill="#9AA3D0" opacity="1.000000" stroke="none" 
	d="
M732.310059,1215.389648 
	C731.686096,1215.851074 730.930359,1215.901245 730.210693,1214.936768 
	C730.916199,1214.258057 731.528442,1214.712891 732.310059,1215.389648 
z"/>
<path fill="#9AA3D0" opacity="1.000000" stroke="none" 
	d="
M934.750305,1240.885986 
	C934.571106,1241.759277 933.757263,1242.046631 932.493042,1242.129639 
	C932.592224,1241.163452 933.511108,1241.027588 934.750305,1240.885986 
z"/>
<path fill="#D9D9D9" opacity="1.000000" stroke="none" 
	d="
M778.415894,357.373108 
	C776.796448,359.508728 777.451538,363.339630 775.076233,363.474701 
	C772.430664,363.625244 772.266602,359.961731 771.087463,357.955872 
	C763.396301,344.871979 753.569641,333.734039 741.058472,325.108459 
	C737.628296,322.743652 737.542236,321.698517 741.309753,319.469635 
	C757.204834,310.066101 769.681152,297.570801 775.376526,278.813690 
	C778.551208,281.318787 779.849426,284.369568 781.556091,287.048706 
	C788.160645,297.416870 796.354431,306.275543 806.530945,313.176086 
	C809.709534,315.331390 809.694275,316.628723 806.673584,318.957733 
	C793.709290,328.953644 785.009583,342.172485 778.415894,357.373108 
z"/>
<path fill="#2B2B30" opacity="1.000000" stroke="none" 
	d="
M1091.858154,925.519287 
	C1096.137207,905.763550 1100.242310,886.398132 1104.528809,867.072937 
	C1105.919312,860.803833 1110.061279,857.448853 1114.713501,858.198181 
	C1119.788452,859.015442 1122.366699,863.491272 1121.600830,870.164978 
	C1121.524780,870.826660 1121.440063,871.489563 1121.312622,872.142761 
	C1118.638428,885.860535 1116.095459,899.605713 1113.246460,913.287109 
	C1108.667603,935.275818 1104.071411,957.259705 1098.231079,978.967957 
	C1092.644897,999.731140 1085.962158,1020.082642 1076.748657,1039.543213 
	C1074.717529,1043.833496 1071.755737,1047.235107 1066.479126,1046.842896 
	C1061.946411,1046.505981 1059.399658,1043.485962 1058.088379,1039.367310 
	C1056.955078,1035.807495 1059.009033,1032.877319 1060.343506,1029.914551 
	C1068.084106,1012.728638 1074.224731,994.990295 1078.900513,976.744263 
	C1083.238037,959.818054 1087.473999,942.865845 1091.858154,925.519287 
z"/>
<path fill="#2D2C33" opacity="1.000000" stroke="none" 
	d="
M894.548706,1496.130127 
	C894.027649,1501.199219 891.230286,1504.276001 886.875244,1505.279785 
	C879.113281,1507.069092 871.260559,1508.555054 863.377686,1509.699219 
	C857.558533,1510.543945 853.668640,1507.867065 852.645569,1503.222656 
	C851.678894,1498.834229 854.452820,1494.445557 860.036926,1493.010376 
	C867.583862,1491.071045 875.246094,1489.426270 882.953918,1488.313110 
	C889.695862,1487.339355 892.143372,1489.298706 894.548706,1496.130127 
z"/>
<path fill="#D1F2FD" opacity="1.000000" stroke="none" 
	d="
M924.334106,1246.326904 
	C924.503418,1245.124756 925.486877,1245.095825 926.888672,1245.762573 
	C926.335938,1246.044800 925.528076,1246.125000 924.334106,1246.326904 
z"/>
<path fill="#303030" opacity="1.000000" stroke="none" 
	d="
M884.744507,848.088135 
	C891.294434,849.193054 897.230896,850.782959 902.314575,854.511719 
	C907.695679,858.458679 909.212036,863.844177 906.398987,868.304626 
	C903.605103,872.734680 898.374756,873.274109 892.347595,869.751404 
	C884.437683,865.128174 875.793213,865.126831 867.142944,866.157349 
	C860.886597,866.902649 854.667664,868.176270 848.830261,870.781128 
	C848.077759,871.117004 847.255493,871.315796 846.448792,871.507568 
	C840.891052,872.828857 836.590332,870.917053 834.881042,866.385803 
	C833.212219,861.961792 835.058777,857.171143 839.960938,854.772522 
	C848.104065,850.787964 856.854797,848.755737 865.859253,847.974915 
	C871.994873,847.442871 878.156128,847.546814 884.744507,848.088135 
z"/>
<path fill="#9484FB" opacity="1.000000" stroke="none" 
	d="
M912.955750,1470.955078 
	C913.098755,1470.591431 913.387817,1470.376587 913.676880,1470.161621 
	C913.724487,1470.441528 913.772034,1470.721436 913.607422,1471.200684 
	C913.395325,1471.400146 913.101807,1471.104004 912.955750,1470.955078 
z"/>
</svg>